<svg xmlns="http://www.w3.org/2000/svg" xmlns:xlink="http://www.w3.org/1999/xlink" version="1.1" x="0px" y="0px" viewBox="0 0 30 37.5" xml:space="preserve"><g transform="translate(-228 -1100)"><g xmlns="http://www.w3.org/2000/svg" xmlns:xlink="http://www.w3.org/1999/xlink"><path d="M257,1121l-2-4v-3l-2-1l1-2h2v-2l-3-5h-12v-2l-5,1l-1,2l-5,1l1,13l3,2v1l1,1h3l2,1l2,3l2-1v1h1l1-1h4v1l4,1l-1-3L257,1121    z M251,1126.219V1125h-5.414l-0.586,0.586v-1.204l-2.658,1.329l-1.658-2.486l-2.449-1.225h-2.822l-0.414-0.414v-1.121    l-3.041-2.027l-0.895-11.631l4.611-0.922l1-2l3.324-0.665v1.78h12.434l2.566,4.277V1110h-1.618l-1.724,3.447l2.342,1.171v2.618    l1.783,3.566l-3.927,3.927l0.619,1.858L251,1126.219z"/></g></g><text x="0" y="45" fill="#000000" font-size="5px" font-weight="bold" font-family="'Helvetica Neue', Helvetica, Arial-Unicode, Arial, Sans-serif">Created by Hea Poh Lin</text><text x="0" y="50" fill="#000000" font-size="5px" font-weight="bold" font-family="'Helvetica Neue', Helvetica, Arial-Unicode, Arial, Sans-serif">from the Noun Project</text></svg>