<?xml version="1.0" encoding="UTF-8" standalone="no"?>
<svg
   version="1.1"
   x="0px"
   y="0px"
   viewBox="0 0 27 26"
   xml:space="preserve"
   id="svg3"
   sodipodi:docname="geographyicon.svg"
   width="27"
   height="26"
   inkscape:version="1.3.2 (091e20e, 2023-11-25, custom)"
   xmlns:inkscape="http://www.inkscape.org/namespaces/inkscape"
   xmlns:sodipodi="http://sodipodi.sourceforge.net/DTD/sodipodi-0.dtd"
   xmlns="http://www.w3.org/2000/svg"
   xmlns:svg="http://www.w3.org/2000/svg"><defs
     id="defs3" /><sodipodi:namedview
     id="namedview3"
     pagecolor="#ffffff"
     bordercolor="#000000"
     borderopacity="0.25"
     inkscape:showpageshadow="2"
     inkscape:pageopacity="0.0"
     inkscape:pagecheckerboard="0"
     inkscape:deskcolor="#d1d1d1"
     inkscape:zoom="31.28"
     inkscape:cx="12.97954"
     inkscape:cy="16.735934"
     inkscape:window-width="2560"
     inkscape:window-height="1369"
     inkscape:window-x="-8"
     inkscape:window-y="-8"
     inkscape:window-maximized="1"
     inkscape:current-layer="g2" /><g
     transform="translate(-230,-1102)"
     id="g2"><g
       id="g1"><path
         d="m 257,1121 -2,-4 v -3 l -2,-1 1,-2 h 2 v -2 l -3,-5 h -12 v -2 l -5,1 -1,2 -5,1 1,13 3,2 v 1 l 1,1 h 3 l 2,1 2,3 2,-1 v 1 h 1 l 1,-1 h 4 v 1 l 4,1 -1,-3 z m -6,5.219 V 1125 h -5.414 l -0.586,0.586 v -1.204 l -2.658,1.329 -1.658,-2.486 -2.449,-1.225 h -2.822 l -0.414,-0.414 v -1.121 l -3.041,-2.027 -0.895,-11.631 4.611,-0.922 1,-2 3.324,-0.665 v 1.78 h 12.434 l 2.566,4.277 V 1110 h -1.618 l -1.724,3.447 2.342,1.171 v 2.618 l 1.783,3.566 -3.927,3.927 0.619,1.858 z"
         id="path1" /></g></g><text
     x="-2"
     y="43"
     fill="#000000"
     font-size="5px"
     font-weight="bold"
     font-family="'Helvetica Neue', Helvetica, Arial-Unicode, Arial, Sans-serif"
     id="text2">Created by Hea Poh Lin</text><text
     x="-2"
     y="48"
     fill="#000000"
     font-size="5px"
     font-weight="bold"
     font-family="'Helvetica Neue', Helvetica, Arial-Unicode, Arial, Sans-serif"
     id="text3">from the Noun Project</text></svg>
