<?xml version="1.0" encoding="UTF-8" standalone="no"?>
<svg
   data-name="Calque 1"
   viewBox="0 0 43.44532 46.410431"
   x="0px"
   y="0px"
   version="1.1"
   id="svg2"
   sodipodi:docname="github.svg"
   width="43.44532"
   height="46.410431"
   inkscape:version="1.3.2 (091e20e, 2023-11-25, custom)"
   xmlns:inkscape="http://www.inkscape.org/namespaces/inkscape"
   xmlns:sodipodi="http://sodipodi.sourceforge.net/DTD/sodipodi-0.dtd"
   xmlns="http://www.w3.org/2000/svg"
   xmlns:svg="http://www.w3.org/2000/svg">
  <defs
     id="defs2" />
  <sodipodi:namedview
     id="namedview2"
     pagecolor="#ffffff"
     bordercolor="#000000"
     borderopacity="0.25"
     inkscape:showpageshadow="2"
     inkscape:pageopacity="0.0"
     inkscape:pagecheckerboard="0"
     inkscape:deskcolor="#d1d1d1"
     inkscape:zoom="9.384"
     inkscape:cx="21.73913"
     inkscape:cy="35.64578"
     inkscape:window-width="2560"
     inkscape:window-height="1369"
     inkscape:window-x="-8"
     inkscape:window-y="-8"
     inkscape:window-maximized="1"
     inkscape:current-layer="svg2" />
  <path
     d="m 43.445321,17.060431 a 12.89,12.89 0 0 0 -2.87,-8.0599997 13,13 0 0 0 -0.56,-7.84 1.73,1.73 0 0 0 -1.09,-1.00000004 c -0.7,-0.24 -3.35,-0.69 -8.75,2.81000004 a 26.1,26.1 0 0 0 -7.12,-0.86 26.13,26.13 0 0 0 -7.13,0.86 c -5.54,-3.58000004 -8.4199996,-3.00000004 -8.9999996,-2.83000004 a 1.75,1.75 0 0 0 -1.09,1.02000004 13,13 0 0 0 -0.58,7.82 12.22,12.22 0 0 0 -2.86,8.1199997 c 0,11.06 6.33,14.4 12.1299996,15.58 a 9.38,9.38 0 0 0 -0.61,2.27 1,1 0 0 0 0,0.25 v 3.06 c -5.2799996,0.44 -6.4099996,-2.65 -6.5199996,-3 a 2.34,2.34 0 0 0 -0.09,-0.24 8.85,8.85 0 0 0 -5,-4.45 1.7503214,1.7503214 0 0 0 -1.11,3.32 5.29,5.29 0 0 1 2.84,2.43 c 0.7,2.27 3.56,5.86 9.8599996,5.46 v 2.88 a 1.75,1.75 0 0 0 3.5,0 v -9.33 a 5,5 0 0 1 1.27,-2.73 1.74,1.74 0 0 0 -1,-3 c -6.1,-0.71 -11.7399996,-2.72 -11.7399996,-12.57 a 8.6,8.6 0 0 1 2.56,-6.42 1.86,1.86 0 0 0 0.4,-1.8599997 8.67,8.67 0 0 1 -0.11,-5.3 15.21,15.21 0 0 1 5.9099996,2.77 1.79,1.79 0 0 0 1.54,0.21 21.63,21.63 0 0 1 6.86,-0.93 21.56,21.56 0 0 1 6.85,0.93 1.78,1.78 0 0 0 1.54,-0.21 15.72,15.72 0 0 1 5.66,-2.75 8.85,8.85 0 0 1 -0.13,5.35 1.73,1.73 0 0 0 0.34,1.6999997 9.74,9.74 0 0 1 2.63,6.51 c 0,9.83 -5.93,11.87 -11.74,12.57 a 1.74,1.74 0 0 0 -0.84,3.13 c 0.62,0.47 1.34,1.79 1.34,4 v 7.92 a 1.75,1.75 0 0 0 3.5,0 v -7.92 a 10.66,10.66 0 0 0 -0.75,-4.07 c 4.7,-1 11.96,-4.09 11.96,-15.6 z"
     id="path1" />
</svg>
