<?xml version="1.0" encoding="UTF-8" standalone="no"?>
<svg
   version="1.1"
   x="0px"
   y="0px"
   viewBox="0 0 90 53.039001"
   enable-background="new 0 0 100 100"
   xml:space="preserve"
   id="svg6"
   sodipodi:docname="homeicon.svg"
   width="90"
   height="53.039001"
   inkscape:version="1.3.2 (091e20e, 2023-11-25, custom)"
   xmlns:inkscape="http://www.inkscape.org/namespaces/inkscape"
   xmlns:sodipodi="http://sodipodi.sourceforge.net/DTD/sodipodi-0.dtd"
   xmlns="http://www.w3.org/2000/svg"
   xmlns:svg="http://www.w3.org/2000/svg"><defs
     id="defs6" /><sodipodi:namedview
     id="namedview6"
     pagecolor="#ffffff"
     bordercolor="#000000"
     borderopacity="0.25"
     inkscape:showpageshadow="2"
     inkscape:pageopacity="0.0"
     inkscape:pagecheckerboard="0"
     inkscape:deskcolor="#d1d1d1"
     inkscape:zoom="9.384"
     inkscape:cx="44.970162"
     inkscape:cy="39.05584"
     inkscape:window-width="2560"
     inkscape:window-height="1369"
     inkscape:window-x="-8"
     inkscape:window-y="-8"
     inkscape:window-maximized="1"
     inkscape:current-layer="svg6" /><g
     id="g5"
     transform="translate(-5,-23.481)"><g
       id="g4"><g
         id="g3"><g
           id="g2"><g
             id="g1"><path
               d="m 50.135,72.45 h -9.137 v -7.728 h 9.137 z m -8.137,-1 h 7.137 v -5.728 h -7.137 z m -2.678,1 h -4.644 v -7.728 h 4.644 z m -3.643,-1 h 2.644 v -5.728 h -2.644 z m -2.024,1 H 29.01 v -7.728 h 4.643 z m -3.643,-1 h 2.643 V 65.722 H 30.01 Z M 27.451,69.505 H 22.96 v -4.782 h 4.491 z m -3.491,-1 h 2.491 V 65.723 H 23.96 Z m 26.175,-7.01 H 40.998 V 53.77 h 9.137 z m -8.137,-1 h 7.137 V 54.77 h -7.137 z m -2.678,1 H 34.676 V 53.77 h 4.644 z m -3.643,-1 h 2.644 V 54.77 h -2.644 z m -2.024,1 H 29.01 V 53.77 h 4.643 z m -3.643,-1 h 2.643 V 54.77 H 30.01 Z m -2.559,-1.94 H 22.96 V 53.77 h 4.491 z m -3.491,-1 h 2.491 V 54.77 H 23.96 Z m 26.175,-7.009 h -9.137 v -7.728 h 9.137 z m -8.137,-1 h 7.137 v -5.728 h -7.137 z m -2.678,1 h -4.644 v -7.728 h 4.644 z m -3.643,-1 h 2.644 v -5.728 h -2.644 z m -2.024,1 H 29.01 v -7.728 h 4.643 z m -3.643,-1 h 2.643 V 43.818 H 30.01 Z M 27.451,47.602 H 22.96 v -4.783 h 4.491 z m -3.491,-1 h 2.491 V 43.819 H 23.96 Z m 26.175,-7.011 h -9.137 v -7.725 h 9.137 z m -8.137,-1 h 7.137 v -5.725 h -7.137 z m -2.678,1 h -4.644 v -7.725 h 4.644 z m -3.643,-1 h 2.644 v -5.725 h -2.644 z m -2.024,1 H 29.01 v -7.725 h 4.643 z m -3.643,-1 h 2.643 V 32.866 H 30.01 Z M 27.451,36.647 H 22.96 v -4.78 h 4.491 z m -3.491,-1 h 2.491 v -2.78 H 23.96 Z"
               id="path1" /></g></g></g><polygon
         points="80.08,60.895 82.122,60.895 78.543,57.244 78.543,51.631 76.454,51.631 76.454,55.114 71.087,49.65 60.057,60.895 62.098,60.895 62.098,76.52 52.164,76.52 52.164,29.903 53.186,29.903 53.186,29.61 29.169,29.61 29.169,24.981 22.31,24.981 22.31,29.61 18.903,29.61 18.903,29.903 19.919,29.903 19.919,76.52 5,76.52 5,75.02 18.419,75.02 18.419,31.403 17.403,31.403 17.403,28.11 20.81,28.11 20.81,23.481 30.669,23.481 30.669,28.11 54.686,28.11 54.686,31.403 53.664,31.403 53.664,75.02 60.598,75.02 60.598,62.395 56.484,62.395 71.086,47.509 74.954,51.445 74.954,50.131 80.043,50.131 80.043,56.63 85.691,62.395 81.58,62.395 81.58,75.02 95,75.02 95,76.52 80.08,76.52 "
         id="polygon3" /><path
         d="m 70.322,76.27 h -6.17 V 64.527 h 6.17 z m -5.17,-1 h 4.17 v -9.742 h -4.17 z"
         id="path3" /><path
         d="m 78.966,71.896 h -7.368 v -7.553 h 7.368 z m -6.368,-1 h 5.368 v -5.553 h -5.368 z"
         id="path4" /></g></g></svg>
