<?xml version="1.0" encoding="UTF-8" standalone="no"?>
<svg
   version="1.1"
   x="0px"
   y="0px"
   viewBox="0 0 61.997868 61.96875"
   xml:space="preserve"
   id="svg2"
   sodipodi:docname="law2icon.svg"
   width="61.997868"
   height="61.96875"
   inkscape:version="1.3.2 (091e20e, 2023-11-25, custom)"
   xmlns:inkscape="http://www.inkscape.org/namespaces/inkscape"
   xmlns:sodipodi="http://sodipodi.sourceforge.net/DTD/sodipodi-0.dtd"
   xmlns="http://www.w3.org/2000/svg"
   xmlns:svg="http://www.w3.org/2000/svg"><defs
     id="defs2" /><sodipodi:namedview
     id="namedview2"
     pagecolor="#ffffff"
     bordercolor="#000000"
     borderopacity="0.25"
     inkscape:showpageshadow="2"
     inkscape:pageopacity="0.0"
     inkscape:pagecheckerboard="0"
     inkscape:deskcolor="#d1d1d1"
     inkscape:zoom="14.6625"
     inkscape:cx="30.963342"
     inkscape:cy="38.976982"
     inkscape:window-width="2560"
     inkscape:window-height="1369"
     inkscape:window-x="-8"
     inkscape:window-y="-8"
     inkscape:window-maximized="1"
     inkscape:current-layer="svg2" /><path
     d="m 61.909934,38.56375 0.003,-10e-4 -7.632,-17.171 c 1.606,-0.833 2.718,-2.493 2.718,-4.423 0,-2.757 -2.243,-5 -5,-5 h -11.382 l -1.724,-3.447 c -0.169,-0.339 -0.515,-0.553 -0.894,-0.553 h -1.446 l -4.706,-7.53 c -0.365,-0.585 -1.33,-0.585 -1.695,0 l -4.707,7.53 h -1.446 c -0.379,0 -0.725,0.214 -0.895,0.553 l -1.723,3.447 H 9.9989344 c -2.757,0 -5,2.243 -5,5 0,1.93 1.112,3.59 2.718,4.423 l -7.63199996,17.171 0.003,10e-4 c -0.1,0.226 -0.118,0.482 -0.037,0.721 l 1.99999996,6 c 0.136,0.409 0.517,0.684 0.948,0.684 H 16.998934 c 0.431,0 0.812,-0.275 0.948,-0.684 l 2,-6 c 0.08,-0.239 0.063,-0.495 -0.037,-0.721 l 0.003,-10e-4 -7.628,-17.164 c 1.322,-0.685 2.308,-1.931 2.614,-3.43 h 11.1 v 3 c 0,0.265 0.105,0.52 0.293,0.707 l 1.707,1.707 v 24.586 h -4 c -0.379,0 -0.725,0.214 -0.895,0.553 l -2,4 c -0.155,0.31 -0.139,0.678 0.044,0.973 0.183,0.294 0.504,0.474 0.851,0.474 h 1 v 2 H 9.9989344 c -0.379,0 -0.725,0.214 -0.895,0.553 l -2,4 c -0.155,0.31 -0.139,0.678 0.044,0.973 0.183,0.294 0.504,0.474 0.851,0.474 H 53.998934 c 0.347,0 0.668,-0.18 0.851,-0.474 0.183,-0.295 0.199,-0.663 0.044,-0.973 l -2,-4 c -0.17,-0.339 -0.516,-0.553 -0.895,-0.553 h -13 v -2 h 1 c 0.347,0 0.668,-0.18 0.851,-0.474 0.183,-0.295 0.199,-0.663 0.044,-0.973 l -2,-4 c -0.17,-0.339 -0.516,-0.553 -0.895,-0.553 h -4 v -24.586 l 1.707,-1.707 c 0.188,-0.187 0.293,-0.442 0.293,-0.707 v -3 h 11.101 c 0.306,1.5 1.292,2.745 2.614,3.43 l -7.628,17.163 0.003,10e-4 c -0.1,0.226 -0.118,0.482 -0.037,0.721 l 2,6 c 0.135,0.41 0.516,0.685 0.947,0.685 h 14 c 0.431,0 0.812,-0.275 0.948,-0.684 l 2,-6 c 0.081,-0.239 0.063,-0.495 -0.037,-0.721 z m -10.911,-0.595 h -6.461 l 6.461,-14.537 z m 2,-14.537 6.461,14.537 h -6.461 z m -22,-20.576 3.196,5.113 h -6.392 z m -6.382,7.113 h 12.764 l 1,2 h -14.764 z m -15.6179996,28 h -6.461 l 6.461,-14.537 z m 1.9999996,-14.537 6.461,14.537 h -6.461 z m 5.279,20.537 H 3.7199344 l -1.333,-4 H 17.611934 Z m 36.103,16 H 9.6169344 l 0.9999996,-2 h 40.764 z m -15.382,-4 h -12 v -2 h 12 z m 1.382,-4 h -14.764 l 1,-2 h 12.764 z m -4.382,-31.414 -1.707,1.707 c -0.188,0.187 -0.293,0.442 -0.293,0.707 v 25 h -2 v -25 c 0,-0.265 -0.105,-0.52 -0.293,-0.707 l -1.707,-1.707 v -2.586 h 6 z m 14,-4.586 h -34 c -0.553,0 -1,0.448 -1,1 0,1.654 -1.346,3 -2.9999996,3 -1.654,0 -3,-1.346 -3,-3 0,-1.654 1.346,-3 3,-3 h 11.9999996 18 12 c 1.654,0 3,1.346 3,3 0,1.654 -1.346,3 -3,3 -1.654,0 -3,-1.346 -3,-3 0,-0.552 -0.447,-1 -1,-1 z m 10.279,28 h -12.558 l -1.333,-4 h 15.225 z"
     id="path1" /><text
     x="-1.0010656"
     y="82.96875"
     fill="#000000"
     font-size="5px"
     font-weight="bold"
     font-family="'Helvetica Neue', Helvetica, Arial-Unicode, Arial, Sans-serif"
     id="text2">from the Noun Project</text></svg>
