<?xml version="1.0" encoding="UTF-8" standalone="no"?>
<svg
   version="1.1"
   id="Layer_1"
   x="0px"
   y="0px"
   width="1061.0641"
   viewBox="0 0 1061.0641 1046.7739"
   enable-background="new 0 0 1500 1500"
   xml:space="preserve"
   sodipodi:docname="Bez nazwy-2.svg"
   height="1046.7739"
   inkscape:version="1.3.2 (091e20e, 2023-11-25, custom)"
   xmlns:inkscape="http://www.inkscape.org/namespaces/inkscape"
   xmlns:sodipodi="http://sodipodi.sourceforge.net/DTD/sodipodi-0.dtd"
   xmlns="http://www.w3.org/2000/svg"
   xmlns:svg="http://www.w3.org/2000/svg"><defs
   id="defs765" /><sodipodi:namedview
   id="namedview765"
   pagecolor="#ffffff"
   bordercolor="#000000"
   borderopacity="0.25"
   inkscape:showpageshadow="2"
   inkscape:pageopacity="0.0"
   inkscape:pagecheckerboard="0"
   inkscape:deskcolor="#d1d1d1"
   inkscape:zoom="0.5529575"
   inkscape:cx="906.03708"
   inkscape:cy="585.03592"
   inkscape:window-width="2560"
   inkscape:window-height="1369"
   inkscape:window-x="-8"
   inkscape:window-y="-8"
   inkscape:window-maximized="1"
   inkscape:current-layer="Layer_1" />





























































































































































































































































































































































































































































































































































































































































































































































































<path
   fill="#010101"
   opacity="1"
   stroke="none"
   d="m 506.34884,948.92506 c 0.37549,0.045 0.75098,0.089 1.78528,0.053 2.04938,-0.1556 3.43994,-0.231 5.28992,-0.2242 3.91913,0.072 7.37988,0.1065 10.83765,0.022 0.8955,-0.022 2.49963,-0.287 2.56451,-0.6546 0.91962,-5.2101 4.40076,-2.7562 7.59784,-2.427 12.48376,0.019 24.50487,-0.043 36.97677,-0.034 4.138,-0.5861 7.8252,-1.2449 11.9306,-1.8447 1.8188,-0.029 3.2195,-0.1175 5.05,-0.1383 3.1449,-0.5891 5.8599,-1.246 8.9093,-1.8495 0.7795,0 1.2243,-0.061 2.0214,-0.034 1.4921,-0.5954 2.632,-1.2747 4.1834,-1.9839 2.7596,-0.4221 5.1077,-0.8145 7.8619,-1.1314 2.4852,-0.5784 4.5643,-1.2324 7.0146,-1.8382 1.1083,-0.033 1.8454,-0.1148 2.9869,-0.1384 2.4605,-0.6093 4.5166,-1.2763 6.5818,-1.9306 0.01,0.013 0.013,-0.017 0.415,0.043 1.8323,-0.6248 3.263,-1.3092 5.045,-2.0197 1.4154,-0.4051 2.4793,-0.784 3.9421,-1.0823 2.4431,-0.6085 4.4871,-1.2976 6.5517,-1.9597 0.021,0.027 0.039,-0.038 0.4576,0.013 3.524,-1.2722 6.6289,-2.5963 10.0826,-3.9589 1.4043,-0.4294 2.46,-0.8206 3.922,-1.1403 3.7485,-0.9186 7.1502,-1.7499 10.4074,-2.9673 1.5748,-0.5888 2.8784,-1.9027 4.4447,-2.902 0.1399,-0.014 0.3285,-0.222 0.6461,-0.4332 1.9476,-0.9807 3.5776,-1.7503 5.1803,-2.5526 -0.027,-0.033 -0.018,0.052 0.4021,0.092 4.4465,-0.9597 9.136,-0.5463 11.8832,-5.1342 4.929,-2.253 9.5101,-4.4056 13.9594,-6.8028 7.3849,-3.9785 14.7312,-8.0337 22.0103,-12.2022 11.5776,-6.6301 23.1459,-13.2944 33.1289,-22.7851 2.7519,-1.8054 5.1449,-3.5734 7.9238,-5.262 7.3291,-2.8984 11.99555,-8.0172 14.97095,-15.0847 1.0629,-1.6383 1.775,-3.2478 2.5665,-5.0929 0.079,-0.2355 0.1995,-0.7178 0.5152,-0.8174 0.5402,-0.6991 0.7645,-1.2984 1.1695,-2.0591 0.2857,-0.4782 0.2866,-0.7955 0.3848,-1.3634 0.7511,-1.3419 1.3009,-2.4334 1.9257,-3.7429 0.075,-0.2181 0.1379,-0.6749 0.4766,-0.8335 2.4561,-5.4095 4.5735,-10.6605 7.0351,-16.0696 3.1088,-13.0338 5.8736,-25.90923 8.9685,-38.98373 0.6522,-0.9158 1.2534,-1.6317 1.2555,-2.3494 0.047,-16.11693 0.06,-32.23436 -0.047,-48.35082 -0.01,-1.09362 -1.0109,-2.18054 -1.5148,-3.66107 -0.052,-1.43011 -0.1394,-2.4696 -0.1549,-3.89447 -0.5882,-2.13751 -1.2492,-3.88971 -1.9318,-5.89282 -0.068,-0.41229 -0.1147,-0.57367 -0.087,-1.15772 -1.0491,-6.84252 -1.6943,-13.39593 -3.44,-19.64178 -1.5239,-5.45209 -4.2877,-10.55756 -6.4751,-16.22076 -2.608,-9.70484 -8.6036,-17.05652 -13.9896,-25.10559 -0.055,-3.72944 -1.2763,-6.19532 -4.98905,-6.64832 -0.019,0.0237 0.037,-4.3e-4 0.036,-0.37097 -0.6418,-1.16895 -1.2829,-1.96729 -1.9397,-2.7522 -0.016,0.0134 0.034,-0.005 0.043,-0.3728 -3.7162,-4.76599 -7.1259,-9.49103 -11.2521,-13.47376 -4.4797,-4.32397 -10.1581,-7.4663 -14.3526,-12.01104 -5.7779,-6.26026 -12.7378,-10.71906 -19.8344,-15.00513 -7.6347,-4.6109 -15.3181,-9.39716 -23.5421,-12.71393 -11.31,-4.56165 -23.0528,-8.14288 -34.7855,-11.53882 -12.5638,-3.63666 -25.2884,-6.75299 -38.0295,-9.72503 -5.4071,-1.26136 -11.0424,-1.52509 -16.5606,-2.3335 -9.9228,-1.45374 -19.7914,-3.56995 -29.7643,-4.31158 -11.1106,-0.82624 -22.3125,-0.40815 -33.47421,-0.56684 -32.5589,-0.46289 -65.12146,-0.76501 -97.67432,-1.49847 -14.39111,-0.32434 -28.77996,-1.31171 -43.13433,-2.44715 -6.51947,-0.51568 -12.9729,-2.01745 -19.41993,-3.26068 -9.21673,-1.7774 -18.40679,-3.69586 -27.59509,-5.61694 -5.41675,-1.13245 -10.87738,-2.14179 -16.19323,-3.64789 -6.65858,-1.8866 -13.1756,-4.268 -19.78016,-6.35187 -3.23559,-1.02099 -6.69464,-1.48376 -9.76501,-2.8468 -6.18305,-2.74481 -12.13019,-6.01568 -18.2478,-8.9151 -6.19739,-2.93725 -12.51966,-5.61084 -18.71897,-8.54419 -5.31167,-2.51343 -10.52679,-5.23089 -15.78909,-7.83398 -0.004,0.0241 -0.008,-0.0168 0.003,-0.40607 -2.34791,-1.81262 -4.70615,-3.23596 -7.10666,-4.58771 -0.0423,0.0716 0.0924,-0.0259 0.0698,-0.39575 -1.07574,-0.74121 -2.12885,-1.11267 -3.19119,-1.45996 -0.009,0.0242 0.0297,-0.0104 -0.0163,-0.38599 -1.16589,-3.66259 -3.61716,-4.85675 -6.92917,-4.68481 -0.0255,0.0531 0.0724,-0.0124 0.0387,-0.35468 -0.72089,-0.75469 -1.40805,-1.16717 -2.10181,-1.56616 -0.007,0.0135 0.0181,-0.005 -0.023,-0.37787 -2.69095,-2.43756 -5.34079,-4.50201 -8.17422,-6.63647 -0.1836,-0.0701 -0.57651,-0.0813 -0.6055,-0.47534 -1.09213,-1.06262 -2.15531,-1.73126 -3.51215,-2.56439 -3.68493,-3.53247 -7.00299,-6.97864 -10.49185,-10.24231 -2.57745,-2.41114 -5.37747,-4.58423 -8.10806,-6.80915 -0.0297,0.0542 0.0792,-0.004 0.0696,-0.39734 -1.64258,-6.71234 -6.92767,-10.25439 -10.969,-14.70477 -0.0298,0.0602 0.0926,0.005 0.12674,-0.38763 0.0232,-2.64637 -0.37451,-4.581 -3.31195,-4.41309 -0.0124,0.0148 0.0231,0.002 0.0189,-0.35644 -0.63351,-0.88923 -1.26281,-1.42017 -1.84601,-2.23255 -0.0179,-0.65253 -0.082,-1.02362 -0.11141,-1.75146 -0.6568,-1.13404 -1.34818,-1.91126 -2.05759,-2.66907 -0.018,0.0195 0.032,0.003 0.0354,-0.3241 -0.65079,-1.11175 -1.30496,-1.89685 -2.11261,-3.02319 -3.1091,-6.06677 -6.36185,-11.66199 -8.9436,-17.55139 -3.07331,-7.01074 -5.46994,-14.31501 -8.36478,-21.40845 -1.24143,-3.04199 -2.99988,-5.87292 -4.54938,-8.74609 -0.0259,0.0537 0.0718,-0.0146 0.0501,-0.37922 -0.11044,-1.08483 -0.19915,-1.80505 -0.24295,-2.93804 -1.11581,-4.91791 -2.3219,-9.41193 -3.42532,-13.9311 -1.27069,-5.2041 -2.45065,-10.43035 -3.60779,-16.09503 -0.73157,-9.13159 -1.56696,-17.81152 -2.30643,-26.49969 -0.62686,-7.36499 -1.11618,-14.7417 -1.74466,-22.10657 -0.0715,-0.83783 -0.64889,-1.63245 -1.15493,-2.83502 -1.49225,2.66852 -2.68805,4.86908 -3.94126,7.03644 -3.93759,6.80963 -7.97851,13.56109 -11.81292,20.4281 -1.90912,3.41894 -3.56507,6.99249 -5.1377,10.5827 -1.9989,4.56341 -3.79718,9.21472 -5.85568,14.15362 -2.75855,4.96271 -5.90042,9.38257 -7.81275,14.28229 -4.03103,10.32825 -7.5845,20.85389 -11.0075,31.40448 -2.08484,6.42597 -3.50153,13.06623 -5.33371,19.57776 -1.08078,3.84082 -2.38697,7.61835 -3.64975,11.8595 -1.57605,9.55328 -3.11597,18.66785 -4.60343,27.79089 -0.80099,4.91297 -1.51223,9.84046 -2.59646,15.01825 -0.46314,5.099 -0.59381,9.94116 -0.77576,15.24634 -0.0391,9.13849 -0.0269,17.81409 -0.0957,26.92212 -0.0154,2.47888 0.0503,4.52545 0.0402,7.01074 -0.0135,2.81152 0.0486,5.18421 0.036,7.77466 -0.0748,0.21777 -0.13907,0.67383 -0.38525,0.7312 -0.40705,0.10742 -0.56794,0.15747 -1.13874,0.13348 -1.79455,-0.023 -3.17923,0.028 -5.00824,0.003 -3.1441,-0.0228 -5.84381,0.0302 -9.00781,0.004 -22.50363,-0.0262 -44.543,0.0272 -67.02597,0.0171 -3.14377,-0.024 -5.84398,0.0156 -8.95721,-0.012 -1.80356,-0.0256 -3.19408,0.0158 -4.90415,-0.0159 C 0.8846,536.74049 0.45058,536.69392 0,536.18745 0.63884,523.40303 1.29425,511.0785 2.26006,498.55134 c 3.16324,-3.04986 3.2767,-7.52478 0.61015,-10.14795 0.87134,-5.22809 1.63626,-10.05218 2.50745,-14.85699 2.1437,-11.82282 3.97879,-23.71729 6.61584,-35.43036 2.35236,-10.44861 2.55045,-21.25055 6.65737,-31.46954 3.41032,-8.48566 4.83799,-17.75531 7.34332,-26.62134 2.28561,-8.0885 4.80151,-16.11298 7.29591,-24.14081 0.80123,-2.57861 1.79338,-5.10382 2.80879,-7.6087 2.94095,-7.25495 6.01758,-14.45588 8.88172,-21.74061 1.58667,-4.03552 2.49365,-8.36865 4.35016,-12.2608 2.87912,-6.03601 6.40625,-11.75915 9.47552,-17.70941 3.08801,-5.98645 5.97895,-12.0755 8.90653,-18.14359 2.49081,-5.16281 4.91089,-10.35974 7.33633,-15.54751 -0.026,-0.006 0.007,0.0349 0.37277,-0.0184 0.71067,-1.08133 1.05548,-2.10932 1.44107,-3.12903 0.0408,0.008 0.0339,-0.0746 0.35181,-0.23492 1.1319,-1.34293 1.94589,-2.52549 2.7558,-3.71058 -0.004,-0.003 0.002,0.007 0.33435,-0.0923 0.69052,-1.05188 1.0488,-2.00479 1.56049,-3.22656 0.16622,-0.681 0.17901,-1.09317 0.53936,-1.55481 0.68466,-0.75479 1.02176,-1.46018 1.53894,-2.49793 1.96201,-3.39123 3.74155,-6.45148 5.52637,-9.50864 2.91031,-4.98486 5.82416,-9.96768 8.6835,-14.97146 -0.053,-0.0201 -0.014,0.0863 0.37503,0.0784 3.49411,-0.88733 3.81736,-3.33127 3.69452,-6.01392 -0.0601,-0.0216 -0.0165,0.0984 0.36121,0.1377 1.06708,-0.71298 1.75647,-1.46527 2.82919,-2.26694 1.09006,-1.06631 1.79675,-2.08325 2.84162,-3.19781 0.77426,-0.80295 1.21038,-1.5083 1.90207,-2.4274 1.76452,-2.29877 3.27346,-4.38379 5.13857,-6.54926 1.54206,-2.3262 2.72794,-4.57202 4.30063,-6.78784 3.27903,-3.0199 6.1713,-6.06976 9.32975,-9.38623 0.20941,-0.75644 0.15268,-1.24625 0.19656,-1.88321 0.10065,-0.14716 -0.0161,-0.48401 0.35471,-0.51016 0.82391,-0.7677 1.27697,-1.50928 2.11743,-2.22275 2.58511,-2.36563 4.67889,-4.86621 7.00485,-7.12805 3.4667,-3.37116 7.25055,-6.42496 10.61551,-9.88959 3.43841,-3.54031 6.36893,-7.57529 9.82211,-11.09952 4.25665,-4.34417 8.83551,-8.37173 13.25003,-12.56256 1.57337,-1.49368 2.96051,-3.20169 4.62821,-4.57431 4.71145,-3.8778 9.65002,-7.48761 14.25427,-11.48498 3.24615,-2.81824 5.85306,-6.38932 9.16995,-9.10581 5.95541,-4.87729 12.13529,-9.4971 18.39588,-13.98089 7.45312,-5.33799 15.02328,-10.52014 22.66778,-15.58103 6.46881,-4.28253 12.98596,-8.52389 19.72229,-12.3612 6.07025,-3.45783 12.5156,-6.25138 18.68701,-9.54148 1.62583,-0.86679 2.84992,-2.48709 4.48911,-3.81561 0.57025,-0.17905 0.74417,-0.4223 1.16095,-0.81689 4.47357,-2.06562 8.53863,-4.09839 12.8761,-6.20777 0.72229,-0.40918 1.17205,-0.74176 1.99377,-0.98248 1.50153,-0.58493 2.63117,-1.26169 3.9856,-1.91608 0.22473,0.0224 0.64398,-0.14575 1.04132,-0.0485 3.65808,-1.80527 8.45752,-0.73285 10.48272,-5.07355 0.0388,0.0255 0.0771,-0.0589 0.47406,-0.025 2.84668,-1.27057 5.29651,-2.57508 8.10944,-4.01633 7.97913,-2.87097 15.60889,-5.56769 23.20319,-8.36056 2.49817,-0.91874 4.85913,-2.21253 7.36139,-3.11789 9.57177,-3.46335 19.09356,-7.09719 28.79303,-10.16471 7.79046,-2.46377 15.77972,-4.33069 23.73645,-6.22905 10.32733,-2.46396 20.64489,-5.0616 31.08825,-6.91789 9.01312,-1.60204 18.20001,-2.21771 27.30121,-3.34114 1.7533,-0.21643 3.44989,-0.8642 5.19977,-1.14226 5.57916,-0.88658 11.1712,-1.69276 16.96954,-2.19272 4.88367,2.53629 9.74854,1.83377 11.55536,-1.22183 19.33478,0.0142 38.21436,0.0151 57.07843,0.43047 3.42973,0.97659 6.87483,1.53869 10.76343,2.16551 3.139,0.0574 5.8345,0.0501 8.9887,0.0985 8.8199,0.75728 17.1916,1.3548 25.5384,2.19861 5.184,0.52409 10.3409,1.35396 15.489,2.17796 2.8386,0.45433 5.6339,1.18016 8.6163,2.11745 1.4015,0.3607 2.6352,0.38756 4.2704,0.51129 1.7719,0.10063 3.1425,0.10437 4.7371,0.39891 2.4366,0.68903 4.6491,1.08725 7.2421,1.58707 1.426,0.11072 2.4715,0.11985 3.7214,0.43962 2.4347,0.70823 4.6651,1.10585 7.2526,1.60965 1.7522,0.43107 3.1474,0.75598 4.7076,1.41278 1.7561,0.70537 3.3471,1.07884 5.2732,1.56053 0.8028,0.085 1.2706,0.0617 2.0001,0.25322 2.3955,0.69287 4.5293,1.17094 7.0262,1.76404 1.1229,0.0922 1.8828,0.0695 2.8773,0.31773 2.39,0.80035 4.5454,1.32968 6.8094,2.14061 0.6879,0.39871 1.2672,0.51582 2.0092,0.96652 1.7556,0.71337 3.3485,1.09316 5.2473,1.59801 0.7445,0.10155 1.1831,0.078 1.7951,0.37694 1.7491,0.70193 3.3245,1.0814 5.2198,1.58221 0.7746,0.10259 1.2291,0.0838 1.8966,0.34201 1.737,0.68476 3.2614,1.09256 5.1179,1.62531 1.759,0.82443 3.1858,1.52392 4.7815,2.55749 1.4057,0.40073 2.6424,0.46741 3.8776,0.54056 0,0.006 0.012,-0.004 0.2112,0.28769 1.7313,0.70532 3.2632,1.11911 5.0936,1.66772 0.7338,0.11796 1.169,0.10108 1.749,0.43598 1.7583,0.73944 3.3719,1.12711 5.0067,1.55435 0.021,0.0396 0.094,-0.0131 0.3662,0.22092 1.3282,3.60119 4.1144,2.81991 6.5618,2.84625 0,-0.0104 -0.016,0.006 0.1325,0.33441 1.4038,0.74155 2.6595,1.1547 3.9321,1.60266 0.017,0.0349 0.081,-0.01 0.3106,0.21805 1.7011,0.6969 3.1723,1.16623 4.9234,1.78034 1.0175,0.47949 1.7552,0.81421 2.6646,1.47964 3.1443,1.37839 6.1169,2.426 9.1078,3.51416 0.018,0.0406 0.093,-0.008 0.3359,0.26038 4.0031,1.8226 7.7629,3.37661 11.5303,4.88067 0.01,-0.0499 -0.068,0.0173 -0.01,0.37763 1.0672,0.73336 2.0744,1.10641 3.3279,1.59399 0.6705,0.4252 1.095,0.73587 1.5935,1.43292 3.0734,1.47568 6.0727,2.56494 9.08245,3.60303 0.01,-0.0512 -0.07,0.0149 -0.018,0.37958 1.0659,0.75168 2.0791,1.13876 3.2695,1.61621 0.177,0.0904 0.5687,0.0222 0.6077,0.42596 1.7669,1.64515 3.3738,3.12229 5.2458,4.08268 5.203,2.66934 10.5162,5.12384 15.8036,7.60519 0.018,-0.058 -0.089,-3.3e-4 -0.08,0.39618 1.9209,1.7677 3.7738,3.2327 5.7574,4.49179 5.1343,3.25906 10.4308,6.27231 15.4678,9.67245 5.8767,3.96695 11.5101,8.29194 17.3174,12.36445 4.8746,3.41855 9.9654,6.53839 14.7413,10.0856 4.3136,3.20385 8.3162,6.82492 12.4817,10.23041 4.6285,3.78408 9.4672,7.33438 13.8738,11.35931 3.5017,3.19839 6.3155,7.14117 9.7473,10.42703 5.4971,5.26343 11.577,9.94715 16.8204,15.43942 7.1704,7.51081 13.7356,15.5965 20.6724,23.33524 2.2646,2.52637 4.8797,4.73849 7.3396,7.46109 3.3855,4.2428 6.7661,8.11887 10.2178,12.13876 0.071,0.14383 0.3336,0.3284 0.4961,0.59552 3.5057,3.88395 6.8487,7.50083 10.215,11.34058 0.191,0.52435 0.445,0.64612 0.8072,0.97034 0.5392,1.69616 0.8209,3.17691 1.6137,4.29547 3.5956,5.07318 7.4756,9.94812 10.9854,15.07782 3.8512,5.62893 7.4088,11.45877 10.853,17.40179 3.2083,5.81067 6.918,11.27997 10.0456,17.06403 4.5263,8.37085 8.66474,16.95294 12.90724,25.47552 4.5812,9.20313 9.3403,18.32935 13.5635,27.69568 4.352,9.65222 8.4129,19.45618 12.1091,29.37702 2.8385,7.61828 4.8871,15.52935 7.3379,23.29412 1.2484,3.95539 2.609,7.87543 3.8202,12.19275 0.2539,1.8031 0.6065,3.2248 1.0049,5.01508 0.7691,2.11029 1.4925,3.85205 2.1624,6.01886 1.5584,7.48877 3.1704,14.55237 4.8295,22.01538 0.7716,2.78741 1.4961,5.17554 2.1592,8.00964 1.3086,10.4682 2.6787,20.49048 3.9751,30.95789 0.3335,3.49542 0.7407,6.54559 1.0484,9.99219 0.5511,2.33673 1.6679,4.25109 1.7777,6.22161 0.808,14.48224 1.4308,28.97498 2.0717,43.46619 0.146,3.3031 0.1342,6.61316 0.1127,10.38239 -0.081,6.49591 -0.079,12.52954 -0.2848,18.85309 -0.6913,8.76477 -1.1756,17.23956 -1.7254,26.11114 -0.063,1.46784 -0.061,2.53894 -0.3466,3.8396 -1.006,4.08313 -1.7242,7.93683 -2.5229,12.2406 -0.1577,4.10162 -0.235,7.75318 -0.654,11.58606 -2.0261,10.09662 -3.7105,20.01184 -5.4589,30.24988 -0.1083,0.75866 -0.1524,1.19452 -0.5325,1.83032 -1.2166,5.54108 -1.7624,10.96509 -3.0583,16.20361 -1.8507,7.48194 -4.2289,14.83448 -6.4229,22.23004 -2.0471,6.90125 -4.1084,13.79877 -6.2371,20.67505 -1.8975,6.1286 -3.9441,12.21106 -5.8338,18.34198 -1.5622,5.06855 -2.6305,10.32129 -4.5776,15.23053 -2.0651,5.20581 -5.1018,10.01758 -7.3714,15.15296 -4.1831,9.46588 -8.0737,19.06054 -12.1707,28.56512 -1.9048,4.41904 -4.00664,8.75304 -6.41084,13.15654 -1.0603,1.1261 -1.7291,2.2211 -2.4355,3.32 -0.038,0 0.01,0.063 -0.311,0.1919 -0.793,1.3403 -1.2648,2.5514 -1.7346,3.7636 0,0 -6e-4,0 -0.3307,0.088 -0.6825,1.0397 -1.0349,1.9874 -1.5492,3.2057 -0.1721,0.6902 -0.1823,1.1096 -0.5741,1.5736 -1.7742,2.4048 -3.1671,4.7653 -4.552,7.13003 0.01,0 0,-0.014 -0.3438,0.067 -2.4888,4.004 -4.6364,7.928 -6.7323,11.8702 0.052,0.018 -0.013,-0.07 -0.3692,-0.028 -3.1395,4.6913 -5.9223,9.3406 -8.6513,14.0103 0.054,0.02 -0.01,-0.076 -0.3955,-0.062 -4.0621,0.9482 -4.4397,3.938 -4.6696,7.0095 0.059,0.026 0,-0.087 -0.3785,-0.069 -1.7588,1.5698 -3.281,3.02 -4.4991,4.6918 -3.8448,5.2775 -7.3199,10.8443 -11.4146,15.9145 -5.2736,6.5304 -11.0172,12.6805 -16.5403,19.0103 -3.2106,3.6794 -6.301,7.4678 -9.6011,11.0643 -3.0732,3.3493 -6.3177,6.5445 -9.5493,9.7445 -4.4761,4.4324 -8.9857,8.8316 -13.5266,13.1975 -4.7439,4.5613 -9.5418,9.0664 -14.621,13.6872 -0.7357,0.7104 -1.1664,1.3294 -1.6343,1.9311 -0.037,-0.017 -0.018,0.062 -0.347,0.09 -0.7883,0.6458 -1.2475,1.2641 -1.7125,1.8792 -0.01,0 2e-4,0.01 -0.3813,0.018 -1.1538,0.9836 -1.9261,1.9566 -2.666,2.9532 0.033,0.023 0,-0.047 -0.3497,-0.027 -0.8162,0.6625 -1.287,1.3044 -1.7072,1.9784 0.051,0.032 0,-0.075 -0.3892,-0.065 -2.3836,1.7413 -4.3819,3.4729 -6.4187,5.1895 -0.039,-0.015 -0.037,0.068 -0.368,0.086 -0.7961,0.633 -1.2614,1.2482 -1.7263,1.8636 5e-4,2e-4 10e-5,-7e-4 -0.3679,0 -1.1613,0.641 -1.9544,1.2769 -2.7025,1.946 0.045,0.033 -0.01,-0.065 -0.3727,-0.063 -1.3545,1.0729 -2.3436,2.1432 -3.3949,3.1924 -0.062,-0.021 -0.082,0.1087 -0.437,0.1119 -1.1293,0.6135 -1.9037,1.2239 -2.6981,1.8189 -0.02,-0.015 0,0.032 -0.3444,0.043 -0.8184,0.6357 -1.2961,1.2601 -1.736,1.9123 0.038,0.028 0,-0.056 -0.3737,-0.057 -2.4191,1.7061 -4.4694,3.4129 -6.5401,5.1017 -0.021,-0.018 -0.01,0.035 -0.3518,0.038 -0.8331,0.6215 -1.3222,1.24 -1.7637,1.8918 0.048,0.034 -0.01,-0.07 -0.4024,-0.079 -2.7949,1.6891 -5.1931,3.3873 -7.5597,5.1116 0.032,0.026 0,-0.049 -0.3818,-0.051 -2.782,1.283 -6.3309,1.1497 -6.6026,5.0634 0.021,0.019 0,-0.034 -0.3828,-0.039 -4.8385,2.9735 -9.2928,5.9521 -13.6947,8.9701 0.053,0.04 -0.01,-0.079 -0.3975,-0.088 -3.4812,1.7107 -6.5217,3.5261 -9.6683,5.1341 -11.1358,5.6907 -22.2812,11.3641 -33.47655,16.9366 -6.604,3.2873 -13.2399,6.52914 -19.9937,9.48974 -3.9505,1.7316 -8.2243,2.7111 -12.2416,4.3081 -7.6344,3.0351 -15.0874,6.5517 -22.8047,9.3467 -8.3406,3.0211 -16.8702,5.5356 -25.3684,8.1024 -6.7974,2.053 -13.6106,4.1192 -20.527,5.6957 -8.11,1.8481 -16.3505,3.1179 -24.5111,4.754 -2.9981,0.6013 -5.8894,1.7884 -8.8997,2.2649 -8.8858,1.407 -17.7844,2.7869 -26.7196,3.8159 -11.3477,1.3068 -22.7177,2.5445 -34.1121,3.2925 -14.7089,0.966 -29.45146,1.4182 -44.62883,2.0186 -3.48285,-0.02 -6.51636,0.033 -9.99762,0 -3.48059,-0.051 -6.51355,-0.019 -9.91797,-0.075 -1.12427,-0.016 -1.87707,0.055 -3.02533,0.042 -1.46594,-0.024 -2.53638,0.037 -3.96197,0.01 -1.08576,-0.1297 -1.81635,-0.1705 -2.5232,-0.5096 -0.0558,-0.6847 -0.13549,-1.0707 -0.14636,-1.9211 0.0693,-18.1132 0.0697,-35.762 0.35706,-53.65214 0.61993,-7.1185 0.953,-13.9955 1.39648,-21.3227 -0.13519,-4.5171 -0.38086,-8.5842 -0.651,-12.6487 -0.0244,0 -0.02,0.052 0.0516,-0.296 0.28405,-1.4387 0.49658,-2.5295 0.80188,-3.9997 0.21356,-1.4102 0.33435,-2.4411 0.45507,-3.4719 M 786.95146,203.06389 c -0.6676,-0.41729 -1.3351,-0.83459 -1.9876,-1.28848 0,0 -0.033,0.0235 -0.1113,-0.72101 -2.9664,-2.05529 -5.9329,-4.11056 -9.29995,-6.31469 0,0 -0.426,-0.032 -0.4803,-0.79328 -1.8524,-3.74124 -4.702,-6.06317 -9.0487,-6.21316 0,0 0.099,-0.0663 0.08,-0.83011 -3.0207,-2.07904 -6.0415,-4.15811 -9.1058,-6.1395 0,0 0.084,-0.0655 0.046,-0.8435 -0.072,-0.49256 0.034,-1.25891 -0.2412,-1.43784 -8.1948,-5.32349 -16.3379,-10.73584 -24.6813,-15.81872 -7.1965,-4.38419 -14.496,-8.64136 -21.9979,-12.46863 -5.7679,-2.94266 -11.9221,-5.12787 -17.9028,-7.65393 -2.0457,-0.86405 -4.1032,-1.70273 -6.126,-2.61777 -6.6364,-3.00201 -13.1421,-6.3378 -19.9259,-8.95438 -5.0953,-1.96533 -10.5715,-2.92123 -15.8249,-4.50341 -10.3363,-3.11316 -20.515,-6.84427 -30.9837,-9.39804 -10.8825,-2.65479 -21.9903,-4.48499 -33.0756,-6.17872 -8.7557,-1.33783 -17.6288,-2.71557 -26.4458,-2.68972 -24.3693,0.0715 -48.74485,0.63668 -73.09996,1.50878 -8.18408,0.2931 -16.4942,-1.20513 -24.62689,2.69855 -4.49353,2.15689 -10.30353,1.46851 -15.47284,2.34192 -10.1112,1.7085 -20.24115,3.36969 -30.26581,5.50812 -8.99908,1.91971 -17.8786,4.40997 -26.78936,6.73083 -5.95844,1.55191 -12.12171,2.664 -17.76441,5.00608 -10.39154,4.31314 -20.48565,9.3482 -30.66784,14.15823 -6.50336,3.07214 -13.15949,5.90863 -19.35358,9.52496 -7.20612,4.20719 -14.30634,8.74482 -20.81421,13.93875 -3.47321,2.77195 -8.19324,5.35096 -8.10822,11.07172 0,0 -0.0632,-0.11865 -0.80499,-0.13376 -0.75494,0.702 -1.50989,1.40399 -2.15277,2.17426 0,0 -0.068,-0.11225 -0.76446,-0.0768 -0.42496,0.69046 -0.84992,1.38089 -1.19227,2.11364 0,0 -0.0552,-0.0746 -0.77566,0.009 -0.44305,0.9859 -0.88611,1.97183 -1.96109,3.23865 -0.97034,1.49878 -1.77936,3.13745 -2.93762,4.47329 -6.7598,7.79636 -12.0372,16.51828 -16.35062,25.84928 -0.66373,1.43588 -0.80935,3.15912 -1.64596,4.45895 -3.54737,5.51151 -6.18369,11.29282 -6.62311,18.62744 -4.75147,8.87607 -6.0914,18.55368 -7.27024,28.84119 -3.61923,2.71777 -2.48806,6.10693 -1.4248,10.35498 -0.32318,1.58914 -0.9249,3.17816 -0.92572,4.7674 -0.007,13.46966 0.0954,26.93933 0.0494,41.24749 1.34741,6.73597 2.39389,13.54993 4.11486,20.18909 2.40949,9.29504 5.14423,18.51776 8.12958,27.64392 0.86344,2.63953 3.06369,4.84174 4.72022,7.97119 0.53778,1.14923 0.93896,2.3902 1.6384,3.43079 2.3208,3.453 4.74896,6.83368 7.0411,10.59906 0,0 0.19116,0.31598 0.13233,1.09698 0.73474,2.67206 1.4299,5.38068 4.97705,6.17707 3.66165,4.36712 7.32327,8.73425 11.03857,13.85357 0.99927,0.43201 1.99854,0.86408 3.06323,1.2002 0,0 -0.0952,0.0664 -0.0792,0.81683 0.67719,0.7525 1.35437,1.50501 2.08502,2.17426 0,0 -0.0797,0.0587 -0.0377,0.76086 0.67084,0.42883 1.34168,0.85767 2.04529,1.23261 0,0 -0.0507,0.0377 0.0154,0.77801 0.99726,0.40528 1.99445,0.81055 2.98737,1.22278 0,0 0.007,-0.005 0.1001,0.74072 2.94995,2.45453 5.89996,4.90906 9.00342,8.10193 2.2442,1.34009 4.47943,2.69531 6.73461,4.0166 3.46955,2.03266 6.9527,4.04212 10.91596,6.53687 1.10144,0.84692 2.20294,1.69379 3.69861,3.11853 1.51947,0.49109 3.039,0.98218 4.90857,2.13061 1.58709,0.61713 3.19189,1.19245 4.75799,1.85901 4.97089,2.11591 9.92725,4.26581 15.34967,6.55506 0,0 0.48334,-0.0398 0.73474,0.68762 3.90534,1.45794 7.81061,2.91583 11.77039,4.28222 0,0 -0.0941,0.0497 0.0626,0.58051 0.3197,0.0812 0.63934,0.16235 1.58502,0.48547 0.78827,0.24982 1.57654,0.49958 3.08277,0.94733 0.74328,0.0373 1.48651,0.0745 2.57806,0.76373 2.58551,0.79364 5.14026,1.71167 7.76178,2.35956 11.71088,2.89429 23.33606,6.30414 35.19147,8.40094 13.63898,2.41217 27.44653,4.1745 41.25653,5.23316 14.70257,1.12707 29.49127,1.23632 44.2475,1.50256 5.08606,0.0918 10.19445,-1.05402 15.28045,-0.96167 6.08051,0.11029 12.13959,1.224 18.2226,1.40222 12.65436,0.37073 25.35457,-0.12506 37.96887,0.72803 14.6849,0.99316 29.2991,3.03778 43.9416,4.6477 6.2193,0.68372 12.4967,1.07672 18.6342,2.21424 9.9793,1.84961 19.866,4.1994 29.7905,6.34411 11.5382,2.49335 23.1053,4.8642 34.5935,7.57007 3.3793,0.7959 6.5332,2.54883 10.1493,4.54736 2.344,0.63074 4.688,1.26148 7.7882,2.12977 0.2616,-0.0371 0.5232,-0.0742 1.376,0.0688 0.8216,0.0441 1.6432,0.0883 2.7493,0.75556 1.2521,0.35961 2.5041,0.71923 4.4986,1.26782 0.7644,-0.0239 1.5288,-0.0479 2.308,-0.0107 0,0 0.041,-0.0475 0.4831,0.53735 2.1571,0.8219 4.3142,1.64374 6.476,2.45691 0,0 -0.012,0.007 0.3349,0.64661 1.5555,0.44189 3.1111,0.88379 5.2531,1.51159 0.4077,-0.0272 0.8153,-0.0545 1.4144,0.64496 1.3093,0.45599 2.6187,0.91199 4.0452,1.82843 0.1853,0.29895 0.4537,0.4422 1.1731,1.10565 1.9254,0.43714 3.8509,0.87433 6.0991,1.50159 0,0 0.3584,-0.10919 0.4617,0.64355 1.0736,0.3603 2.1471,0.72059 3.6988,1.32105 0.4192,0.30188 0.8384,0.60376 1.4188,1.67957 4.3371,1.77844 8.6743,3.55688 13.1081,5.7854 0.1759,0.29303 0.4345,0.43359 0.9168,1.19653 2.97685,1.11651 5.95365,2.23303 8.95775,3.23846 0,0 -0.098,0.0582 -0.051,0.83283 5.6378,3.74335 11.3667,7.35797 16.8875,11.2666 5.4514,3.85944 10.7665,7.92249 16.0038,12.06988 4.7673,3.77527 9.3829,7.74518 14.0023,11.70301 3.1219,2.67492 6.3434,5.28052 9.1534,8.26294 6.4375,6.83233 12.6502,13.87652 19.0446,21.59118 0.6499,0.82105 1.2998,1.64216 1.8959,2.83625 0,0 0.1724,0.33502 0.1107,1.11047 4.5492,7.96197 9.1898,15.87353 13.6111,23.90595 2.3841,4.33154 4.3929,8.86968 6.4528,13.96789 0.3819,0.78058 0.7637,1.56122 1.07,3.14801 1.6997,4.39386 3.3994,8.78772 4.998,13.98901 0.7124,2.73255 1.4248,5.46515 2.0432,8.97571 0.607,1.47101 1.214,2.94196 1.7402,4.8349 0,0 0.1505,0.40235 0.02,1.27527 1.1106,5.03388 2.2213,10.06775 3.1625,16.02454 0,4.67346 0,9.34686 0,14.02032 3.5042,-4.06335 5.9058,-8.03619 8.0755,-12.13196 0.5709,-1.078 0.4246,-2.53607 0.8822,-4.56268 1.6176,-3.59955 3.2796,-7.18036 4.8137,-10.81512 0.2942,-0.6969 0.085,-1.60608 0.38,-2.94599 -0.02,-0.39294 -0.04,-0.78595 0.6103,-1.31067 0.3263,-0.72314 0.6526,-1.44635 1.2135,-2.93524 0.2716,-0.89123 0.5317,-1.78613 0.8163,-2.67309 1.344,-4.18787 2.6944,-8.37366 4.2378,-13.32196 0.6355,-1.79438 1.4094,-3.55311 1.8826,-5.38935 1.9654,-7.6261 4.1263,-15.21832 5.6714,-22.93194 1.7174,-8.57489 2.8432,-17.26831 4.3708,-26.38221 0,0 0.094,-0.48462 0.7993,-0.81836 0.5029,-2.33825 1.1284,-4.65783 1.4875,-7.018 1.5551,-10.21857 3.0325,-20.44904 4.7188,-31.57715 0.013,-3.36792 0.025,-6.73584 0.2026,-10.53778 0,0 -0.1306,-0.44562 0.4812,-0.89502 0.3145,-1.56653 0.9041,-3.1333 0.9025,-4.69946 -0.03,-29.04309 1.7193,-58.04395 -3.1353,-87.06244 -2.1666,-12.95123 -4.4764,-25.92145 -6.4839,-39.76038 -1.0722,-9.38733 -3.5515,-18.40527 -6.979,-27.92047 -0.623,-1.4931 -1.2459,-2.9862 -1.7929,-4.86633 0,0 -0.1484,-0.36554 -0.042,-1.18927 -2.861,-8.01245 -5.3163,-16.20166 -8.7073,-23.98316 -2.8726,-6.59143 -6.8462,-12.7008 -10.2987,-19.04199 -5.1002,-9.36749 -9.9025,-18.91034 -15.3375,-28.07855 -4.4031,-7.42731 -9.5717,-14.39935 -14.3632,-21.59839 -3.2789,-4.92639 -6.2971,-10.03979 -9.7961,-14.80197 -2.9651,-4.03546 -6.5022,-7.64621 -9.6951,-11.52008 -3.1476,-3.81912 -6.0068,-7.88828 -9.3019,-11.57089 -5.9964,-6.70182 -12.1789,-13.23972 -18.3744,-19.75977 -2.2821,-2.40158 -4.8209,-4.55908 -7.285,-7.55646 -0.657,-0.75961 -1.3139,-1.51922 -1.9806,-2.26202 0,0 0.016,-0.0103 -0.061,-0.7308 -0.9775,-0.42746 -1.955,-0.85492 -2.9395,-1.2692 0,0 0.013,-0.008 -0.058,-0.67819 -0.6475,-0.43982 -1.2951,-0.87964 -1.9418,-1.32181 0,0 0,0.001 -0.053,-0.72073 -0.6553,-0.74823 -1.3106,-1.49649 -1.9468,-2.28061 0,0 -0.035,0.0213 -0.1233,-0.68821 -0.9695,-0.41665 -1.9388,-0.83331 -2.881,-1.30932 0,0 -0.057,0.0316 -0.1426,-0.62164 -0.6359,-0.42222 -1.2719,-0.84443 -1.8951,-1.34867 0,0 -0.078,0.0285 -0.1652,-0.70215 -1.6309,-1.35974 -3.2619,-2.71945 -4.9033,-4.23632 0,0 -0.1564,0.0184 -0.3431,-0.6232 -1.1329,-0.55802 -2.2659,-1.11606 -3.4578,-1.55387 0,0 0.1141,-0.0701 0.1269,-0.84717 -1.0384,-0.73681 -2.0768,-1.47366 -3.175,-2.10519 0,0 0.1027,-0.0641 0.051,-0.75388 -0.6846,-0.42355 -1.3692,-0.84713 -2.0862,-1.20864 0,0 0.057,-0.0404 -0.021,-0.71534 z"
   id="path4"
   style="fill:#ffffff;fill-opacity:1" /></svg>
