<?xml version="1.0" encoding="UTF-8" standalone="no"?>
<svg
   width="16"
   height="9.0000095"
   fill="currentColor"
   class="bi bi-medium"
   viewBox="0 0 16 9.0000095"
   version="1.1"
   id="svg1"
   sodipodi:docname="medium.svg"
   inkscape:version="1.3.2 (091e20e, 2023-11-25, custom)"
   xmlns:inkscape="http://www.inkscape.org/namespaces/inkscape"
   xmlns:sodipodi="http://sodipodi.sourceforge.net/DTD/sodipodi-0.dtd"
   xmlns="http://www.w3.org/2000/svg"
   xmlns:svg="http://www.w3.org/2000/svg">
  <defs
     id="defs1" />
  <sodipodi:namedview
     id="namedview1"
     pagecolor="#ffffff"
     bordercolor="#000000"
     borderopacity="0.25"
     inkscape:showpageshadow="2"
     inkscape:pageopacity="0.0"
     inkscape:pagecheckerboard="0"
     inkscape:deskcolor="#d1d1d1"
     inkscape:zoom="73.3125"
     inkscape:cx="7.9931799"
     inkscape:cy="4.4944587"
     inkscape:window-width="2560"
     inkscape:window-height="1369"
     inkscape:window-x="-8"
     inkscape:window-y="-8"
     inkscape:window-maximized="1"
     inkscape:current-layer="svg1" />
  <path
     d="m 9.025,4.5000054 c 0,2.485 -2.02,4.5 -4.513,4.5 A 4.506,4.506 0 0 1 0,4.5000054 C 0,2.0140054 2.02,5.4433943e-6 4.512,5.4433943e-6 A 4.506,4.506 0 0 1 9.025,4.5000054 m 4.95,0 c 0,2.34 -1.01,4.236 -2.256,4.236 -1.246,0 -2.256,-1.897 -2.256,-4.236 0,-2.34 1.01,-4.23599996 2.256,-4.23599996 1.246,0 2.256,1.89699996 2.256,4.23599996 m 2.025,0 c 0,2.096 -0.355,3.795 -0.794,3.795 -0.438,0 -0.793,-1.7 -0.793,-3.795 0,-2.096 0.355,-3.79499996 0.794,-3.79499996 0.438,0 0.793,1.69899996 0.793,3.79499996"
     id="path1"
     style="fill:#000000;fill-opacity:1" />
</svg>
