<?xml version="1.0" encoding="UTF-8" standalone="no"?>
<svg
   version="1.1"
   x="0px"
   y="0px"
   viewBox="0 0 64 88"
   id="svg2"
   sodipodi:docname="me3icon.svg"
   width="64"
   height="88"
   inkscape:version="1.3.2 (091e20e, 2023-11-25, custom)"
   xmlns:inkscape="http://www.inkscape.org/namespaces/inkscape"
   xmlns:sodipodi="http://sodipodi.sourceforge.net/DTD/sodipodi-0.dtd"
   xmlns="http://www.w3.org/2000/svg"
   xmlns:svg="http://www.w3.org/2000/svg">
  <defs
     id="defs2" />
  <sodipodi:namedview
     id="namedview2"
     pagecolor="#ffffff"
     bordercolor="#000000"
     borderopacity="0.25"
     inkscape:showpageshadow="2"
     inkscape:pageopacity="0.0"
     inkscape:pagecheckerboard="0"
     inkscape:deskcolor="#d1d1d1"
     inkscape:zoom="9.384"
     inkscape:cx="31.969309"
     inkscape:cy="56.532396"
     inkscape:window-width="2560"
     inkscape:window-height="1369"
     inkscape:window-x="-8"
     inkscape:window-y="-8"
     inkscape:window-maximized="1"
     inkscape:current-layer="svg2" />
  <g
     transform="translate(-18,-958.36218)"
     id="g1">
    <path
       style="color:#000000;font-style:normal;font-variant:normal;font-weight:normal;font-stretch:normal;font-size:medium;line-height:normal;font-family:Sans;-inkscape-font-specification:Sans;text-indent:0;text-align:start;text-decoration:none;text-decoration-line:none;letter-spacing:normal;word-spacing:normal;text-transform:none;writing-mode:lr-tb;direction:ltr;baseline-shift:baseline;text-anchor:start;display:inline;overflow:visible;visibility:visible;opacity:1;fill:#000000;fill-opacity:1;stroke:none;stroke-width:4;marker:none;enable-background:accumulate"
       d="M 29,6 C 22.940602,6 18,10.9406 18,17 v 66 c 0,6.0594 4.940602,11 11,11 h 42 c 6.059398,0 11,-4.9406 11,-11 V 17 C 82,10.9406 77.059398,6 71,6 Z m 0,4 h 42 c 3.912587,0 7,3.08741 7,7 v 66 c 0,3.9126 -3.087413,7 -7,7 H 29 c -3.912587,0 -7,-3.0874 -7,-7 V 17 c 0,-3.91259 3.087413,-7 7,-7 z m 21,10 c -3.8423,0 -7,3.1577 -7,7 0,3.8423 3.1577,7 7,7 3.8423,0 7,-3.1577 7,-7 0,-3.8423 -3.1577,-7 -7,-7 z m 0,4 c 1.68054,0 3,1.31946 3,3 0,1.68054 -1.31946,3 -3,3 -1.68054,0 -3,-1.31946 -3,-3 0,-1.68054 1.31946,-3 3,-3 z m 0,12 C 46.045469,36 42.453725,37.01315 39.71875,38.78125 36.983775,40.54935 35,43.19917 35,46.3125 V 48 a 2.0001999,2.0001999 0 0 0 2,2 h 26 a 2.0001999,2.0001999 0 0 0 2,-2 V 46.3125 C 65,43.19917 63.016225,40.54935 60.28125,38.78125 57.546275,37.01315 53.954531,36 50,36 Z m 0,4 c 3.247469,0 6.160475,0.88623 8.125,2.15625 1.821751,1.17772 2.656567,2.53189 2.78125,3.84375 H 39.09375 C 39.218433,44.68814 40.053249,43.33397 41.875,42.15625 43.839525,40.88623 46.752531,40 50,40 Z M 32,56 c -1.10457,0 -2,0.8954 -2,2 0,1.1046 0.89543,2 2,2 h 36 c 1.10457,0 2,-0.8954 2,-2 0,-1.1046 -0.89543,-2 -2,-2 z m 0,10 c -1.10457,0 -2,0.8954 -2,2 0,1.1046 0.89543,2 2,2 h 36 c 1.10457,0 2,-0.8954 2,-2 0,-1.1046 -0.89543,-2 -2,-2 z m 0,10 c -1.10457,0 -2,0.8954 -2,2 0,1.1046 0.89543,2 2,2 h 36 c 1.10457,0 2,-0.8954 2,-2 0,-1.1046 -0.89543,-2 -2,-2 z"
       transform="translate(0,952.36218)"
       id="path1" />
  </g>
</svg>
