<?xml version="1.0" encoding="UTF-8" standalone="no"?>
<svg
   xml:space="preserve"
   version="1.1"
   style="image-rendering:optimizeQuality;shape-rendering:geometricPrecision;text-rendering:geometricPrecision"
   viewBox="0 0 29404.953 32637.947"
   x="0px"
   y="0px"
   fill-rule="evenodd"
   clip-rule="evenodd"
   id="svg2"
   sodipodi:docname="psnicon.svg"
   width="29404.953"
   height="32637.947"
   inkscape:version="1.3.2 (091e20e, 2023-11-25, custom)"
   xmlns:inkscape="http://www.inkscape.org/namespaces/inkscape"
   xmlns:sodipodi="http://sodipodi.sourceforge.net/DTD/sodipodi-0.dtd"
   xmlns="http://www.w3.org/2000/svg"
   xmlns:svg="http://www.w3.org/2000/svg"><sodipodi:namedview
     id="namedview2"
     pagecolor="#ffffff"
     bordercolor="#000000"
     borderopacity="0.25"
     inkscape:showpageshadow="2"
     inkscape:pageopacity="0.0"
     inkscape:pagecheckerboard="0"
     inkscape:deskcolor="#d1d1d1"
     inkscape:zoom="0.014142136"
     inkscape:cx="17041.273"
     inkscape:cy="18915.106"
     inkscape:window-width="2560"
     inkscape:window-height="1369"
     inkscape:window-x="-8"
     inkscape:window-y="-8"
     inkscape:window-maximized="1"
     inkscape:current-layer="svg2" /><defs
     id="defs1"><style
       type="text/css"
       id="style1">
   
    .fil0 {fill:black;fill-rule:nonzero}
   
  </style></defs><g
     id="g1"
     transform="translate(-15080.048,-14273.99)"><path
       class="fil0"
       d="m 30317.88,38094.42 c -198.48,-94.92 -282.42,-332.78 -187.5,-531.26 94.92,-198.48 332.78,-282.42 531.26,-187.5 130.72,62.71 278.42,109.31 432.98,132.82 -412.06,-697.29 -657.34,-1205.95 -676.35,-2194.85 l -42.38,-2204.28 -0.01,-0.31 v -0.14 l -11.01,-572.61 c -5.94,-309.52 1.35,-553.91 37.28,-755.9 44.54,-250.35 129.95,-446.69 276.93,-616.72 93.3,-107.92 203.27,-197.7 383.01,-289.34 140.73,-71.76 337.4,-149.12 630.99,-248.23 295.22,-107.15 507.38,-169.93 676.18,-202.64 200.02,-38.76 346.56,-38.73 487.36,-17.84 794.56,117.97 1196.58,845.39 1623.99,1618.83 311.7,564.03 640.07,1158.21 1104.32,1410.24 193.29,105.28 264.65,347.34 159.37,540.63 -40.64,74.6 -101.66,131.03 -172.38,166.16 l 0.51,1.02 c -227.25,113.02 -454.73,196.91 -678.21,249.92 147.91,237.06 320.46,435.73 535,609.29 330.64,267.5 766.66,484.26 1366.32,695.06 207.96,72.48 317.79,299.85 245.31,507.81 -24.36,69.89 -66.23,128.67 -118.96,173.2 l 0.21,0.24 c -435.75,368.33 -957.42,612.78 -1483.48,703.53 l -2.96,0.58 c -34.22,6.34 -67.88,13.12 -101,20.3 l 1848.08,2256.37 c 273.03,333.35 602.6,463.59 936.48,473.83 499.06,15.3 1026.43,-214.98 1424.76,-463.76 169.43,-109.67 377.22,-174.69 599.58,-174.69 272.66,0 523.42,97.74 708.39,255.73 201.78,172.37 326.61,414.88 326.61,686.66 0,271.79 -124.83,514.29 -326.61,686.66 -184.97,157.99 -435.73,255.73 -708.39,255.73 -272.66,0 -523.42,-97.74 -708.39,-255.73 -122.6,-104.73 -216.78,-235.34 -271.82,-382.69 -337.16,122.57 -701.55,200.15 -1066.01,188.97 -552.35,-16.95 -1093.29,-227.15 -1533.36,-764.45 l -2008.24,-2451.92 c -4.06,-4.97 -7.97,-10.01 -11.76,-15.11 -91.2,52.29 -175.35,108.67 -252.83,168.33 -15.5,11.94 -30.74,24.01 -45.73,36.22 9.62,9.92 18.81,20.43 27.54,31.53 l 2566.45,3254.38 c 136.34,173.45 106.27,424.6 -67.18,560.94 -173.45,136.34 -424.6,106.27 -560.94,-67.18 l -2485.61,-3151.88 c -42.63,78.82 -79.2,158.35 -110.19,237.47 -80.25,205.38 -311.81,306.82 -517.19,226.57 -145.3,-56.77 -238.55,-189.28 -252.28,-334.67 -214.11,-1336.33 -836.33,-2143.47 -1384.53,-2854.43 -84.92,-110.13 -168.25,-218.22 -248.68,-325.83 l 2.34,121.65 c 17.07,887.72 279.49,1325.18 714.39,2050.13 76.2,127.04 157.15,261.98 183.7,307 l -0.54,0.32 c 16.65,28.21 30.06,58.95 39.6,91.87 61.27,211.42 -60.45,432.48 -271.87,493.75 -129.12,37.45 -260.36,60.77 -391.4,71.6 38.04,221.44 119.93,387.11 254.89,502.36 212.76,181.7 575.66,280.3 1118.09,313.38 220.05,12.94 387.94,201.83 375,421.88 -1.19,20.26 -3.89,40.07 -7.95,59.34 l 0.14,0.03 c -198.87,925.85 -658.19,1343.34 -1220.17,1465.45 -51.12,11.11 -102.78,19.42 -154.85,25.2 29.52,77.03 60.76,153.15 93.53,228 205.87,470.25 469.89,890.93 744.5,1171.57 208.13,212.69 398.69,333.2 528.54,296.83 8.24,-2.3 15.14,-4.66 20.59,-7.05 215.32,-94.27 331.46,-397.2 477.21,-777.4 l 19.07,-49.72 0.96,0.37 c 24.96,-65.77 67.68,-125.77 127.17,-172.24 173.45,-135.48 423.89,-104.7 559.37,68.75 280.18,357.58 466.68,700.66 565.42,1027.64 110.35,365.38 115.02,711.87 21.47,1037.6 -112.75,392.52 -303.26,702.63 -546.04,934.92 -262.08,250.77 -579.31,404.23 -921.96,468 -330.66,61.54 -682.22,39.34 -1026.55,-59.56 -371.91,-106.83 -740.09,-304.69 -1066.92,-584.05 -43.8,234.01 -112.5,460.77 -208.7,680.72 -235.31,538.01 -630.33,1024.98 -1221.81,1465.66 -147.39,109.28 -345.34,101.76 -483.15,-6.11 -586.95,-439.07 -979.44,-924.02 -1213.66,-1459.55 -96.2,-219.94 -164.91,-446.69 -208.71,-680.71 -326.83,279.37 -695.01,477.21 -1066.92,584.04 -344.33,98.9 -695.89,121.1 -1026.55,59.56 -342.65,-63.77 -659.88,-217.23 -921.96,-468 -242.78,-232.29 -433.29,-542.4 -546.04,-934.92 -93.55,-325.73 -88.88,-672.22 21.47,-1037.6 98.74,-326.98 285.24,-670.06 565.42,-1027.64 135.48,-173.45 385.92,-204.23 559.37,-68.75 59.49,46.47 102.21,106.47 127.17,172.24 l 0.96,-0.37 19.07,49.72 c 145.75,380.2 261.89,683.13 477.21,777.4 5.45,2.39 12.35,4.75 20.59,7.05 129.85,36.37 320.41,-84.14 528.54,-296.83 274.61,-280.64 538.63,-701.32 744.5,-1171.57 32.77,-74.85 64.01,-150.97 93.53,-228 -52.07,-5.78 -103.73,-14.09 -154.85,-25.2 -561.98,-122.11 -1021.3,-539.6 -1220.17,-1465.45 l 0.14,-0.03 c -4.06,-19.27 -6.76,-39.08 -7.95,-59.34 -12.94,-220.05 154.95,-408.94 375,-421.88 542.43,-33.08 905.33,-131.68 1118.09,-313.38 134.96,-115.25 216.85,-280.92 254.89,-502.36 -131.04,-10.83 -262.28,-34.15 -391.4,-71.6 -211.42,-61.27 -333.14,-282.33 -271.87,-493.75 9.54,-32.92 22.95,-63.66 39.6,-91.87 l -0.54,-0.32 c 26.55,-45.02 107.5,-179.96 183.7,-307 434.9,-724.95 697.32,-1162.41 714.39,-2050.13 l 2.34,-121.65 c -80.43,107.6 -163.76,215.7 -248.68,325.83 -548.2,710.96 -1170.42,1518.1 -1384.53,2854.43 -13.73,145.39 -106.98,277.9 -252.28,334.67 -205.38,80.25 -436.94,-21.19 -517.19,-226.57 -30.99,-79.12 -67.56,-158.65 -110.19,-237.47 l -2485.61,3151.88 c -136.34,173.45 -387.49,203.52 -560.94,67.18 -173.45,-136.34 -203.52,-387.49 -67.18,-560.94 l 2566.45,-3254.38 c 8.73,-11.1 17.92,-21.61 27.54,-31.53 -14.99,-12.21 -30.23,-24.28 -45.73,-36.22 -77.48,-59.66 -161.63,-116.04 -252.83,-168.33 -3.78,5.1 -7.7,10.14 -11.76,15.11 l -2008.24,2451.92 c -440.07,537.3 -981.01,747.5 -1533.36,764.45 -364.45,11.18 -728.86,-66.39 -1066.01,-188.97 -55.04,147.35 -149.22,277.96 -271.82,382.69 -184.97,157.99 -435.73,255.73 -708.39,255.73 -272.66,0 -523.42,-97.74 -708.39,-255.73 -201.78,-172.37 -326.61,-414.87 -326.61,-686.66 0,-271.78 124.83,-514.29 326.61,-686.66 184.97,-157.99 435.73,-255.73 708.39,-255.73 222.36,0 430.15,65.02 599.58,174.69 398.33,248.78 925.7,479.06 1424.76,463.76 333.88,-10.24 663.45,-140.48 936.48,-473.83 l 1848.08,-2256.37 c -33.12,-7.18 -66.78,-13.96 -101,-20.3 l -2.96,-0.58 c -526.06,-90.75 -1047.73,-335.2 -1483.48,-703.53 l 0.21,-0.24 c -52.73,-44.53 -94.6,-103.31 -118.96,-173.2 -72.48,-207.96 37.35,-435.33 245.31,-507.81 599.66,-210.8 1035.68,-427.56 1366.32,-695.06 214.54,-173.56 387.09,-372.23 535,-609.29 -223.48,-53.01 -450.96,-136.9 -678.21,-249.92 l 0.51,-1.02 c -70.72,-35.13 -131.74,-91.56 -172.38,-166.16 -105.28,-193.29 -33.92,-435.35 159.37,-540.63 464.25,-252.03 792.62,-846.21 1104.32,-1410.24 427.41,-773.44 829.43,-1500.86 1623.99,-1618.83 140.8,-20.89 287.34,-20.92 487.36,17.84 168.8,32.71 380.96,95.49 676.19,202.61 293.58,99.14 490.25,176.5 630.98,248.26 179.74,91.64 289.71,181.42 383.01,289.34 146.98,170.03 232.39,366.37 276.93,616.72 35.93,201.99 43.22,446.38 37.28,755.9 l -53.4,2777.34 c -19.01,988.9 -264.29,1497.55 -676.35,2194.85 154.56,-23.51 302.26,-70.11 432.98,-132.82 198.48,-94.92 436.34,-10.98 531.26,187.5 94.92,198.48 10.98,436.34 -187.5,531.26 -112.53,53.99 -232.88,100.11 -358.27,136.49 -40.75,515.29 -211.84,905.57 -549.01,1193.51 -264.51,225.9 -619.66,371.42 -1084.61,448.75 123.05,257.56 286.94,384.14 469.5,423.81 309.97,67.36 707.4,-60.81 1081.24,-241.6 198.48,-95.78 437.04,-12.54 532.82,185.94 95.78,198.48 12.54,437.04 -185.94,532.82 -181.56,87.8 -370.64,165.77 -562.11,224.76 -67.54,220.07 -149.34,439.21 -242.19,651.3 -243.24,555.61 -564.61,1062.29 -907,1412.19 -408.87,417.85 -867.02,631.11 -1312.92,506.21 -40.39,-11.31 -81.66,-26.13 -123.73,-44.55 -288.94,-126.5 -469.95,-317.43 -609.82,-556.11 -21.48,52.02 -39.81,103.19 -55,153.51 -64.62,213.97 -69.33,410.01 -18.33,587.58 72.58,252.7 186.37,443.86 327.28,578.68 143.8,137.59 321.43,222.46 515.72,258.62 206.28,38.39 433.86,22.17 664.03,-43.94 333.92,-95.92 664.79,-294.47 940.43,-582.55 217.87,-227.73 369.34,-564.96 618.11,-1118.87 81.23,-180.85 172.44,-383.92 290.78,-636.96 93.19,-199.34 330.35,-285.38 529.69,-192.19 199.34,93.19 285.38,330.35 192.19,529.69 -102.54,219.26 -198.82,433.6 -284.54,624.46 -90.94,202.49 -170.46,379.49 -246.98,537.49 -0.18,8.81 -0.62,17.68 -1.39,26.59 -44.81,496.93 7.98,948.91 187.36,1359.01 147.86,338.08 385.01,654.78 728.05,952.96 343.04,-298.18 580.19,-614.89 728.05,-952.96 179.37,-410.1 232.16,-862.09 187.35,-1359.01 -0.77,-8.91 -1.21,-17.78 -1.39,-26.59 -76.52,-158 -156.04,-334.99 -246.98,-537.49 -85.72,-190.86 -182,-405.2 -284.54,-624.46 -93.19,-199.34 -7.15,-436.5 192.19,-529.69 199.34,-93.19 436.5,-7.15 529.69,192.19 118.34,253.04 209.55,456.11 290.78,636.96 248.77,553.91 400.24,891.14 618.11,1118.87 275.64,288.08 606.51,486.63 940.43,582.55 230.17,66.11 457.75,82.33 664.03,43.94 194.29,-36.16 371.92,-121.03 515.72,-258.62 140.91,-134.82 254.7,-325.98 327.28,-578.68 51,-177.57 46.29,-373.61 -18.33,-587.58 -15.19,-50.32 -33.52,-101.49 -55,-153.51 -139.87,238.68 -320.88,429.61 -609.82,556.11 -42.07,18.42 -83.34,33.24 -123.73,44.55 -445.9,124.9 -904.05,-88.36 -1312.92,-506.21 -342.39,-349.9 -663.76,-856.58 -907,-1412.19 -92.85,-212.09 -174.65,-431.23 -242.19,-651.3 -191.48,-59 -380.55,-136.95 -562.11,-224.76 -198.48,-95.78 -281.72,-334.34 -185.94,-532.82 95.78,-198.48 334.34,-281.72 532.82,-185.94 373.84,180.79 771.27,308.96 1081.24,241.6 182.56,-39.67 346.45,-166.25 469.5,-423.81 -464.95,-77.33 -820.1,-222.85 -1084.61,-448.75 -337.17,-287.94 -508.26,-678.22 -549.01,-1193.51 -125.39,-36.38 -245.74,-82.5 -358.27,-136.49 z M 28738.64,15166.34 c 75.53,-163.91 178.89,-312.25 303.98,-438.81 276.95,-280.22 658.68,-453.54 1079.51,-453.54 420.83,0 802.56,173.32 1079.51,453.54 118.32,119.71 217.2,258.93 291.47,412.37 17.4,-9.8 34.93,-19.49 52.61,-29.04 431.66,-233.14 947.93,-390.07 1552.5,-411.23 88.44,-7.61 179.97,14.06 259.01,68 182.08,124.26 228.95,372.61 104.69,554.69 -159.62,232.59 -323.97,461.13 -471.66,666.51 -494.09,687.11 -778.19,1082.3 -1016.75,1996.65 346.64,-142.38 698.95,-337.5 1064.9,-540.16 194.35,-107.62 -76.42,41.17 159.19,-88.72 193.29,-106.14 436.05,-35.48 542.19,157.81 106.14,193.29 35.48,436.05 -157.81,542.19 -341.25,188.13 -66.28,35.88 -156.07,85.6 -1221.05,676.19 -2315.2,1282.1 -3677.97,549.06 -291.03,-156.55 -512.8,-201.84 -703.73,-148.51 -21.18,5.91 -42.42,13.03 -63.75,21.33 -53.03,54.67 -122.21,94.82 -202.24,112.11 l -2.32,0.47 c -39.56,27.68 -79.74,58.94 -120.75,93.69 98.31,99.09 187.72,215.83 285.56,343.62 29.66,38.73 60.38,78.86 99.88,128.54 l 0.9,1.13 c 330.65,415.9 443.35,557.66 1087.93,878.41 133.62,66.49 310.54,158.32 486.73,312.11 190.03,165.86 359.73,390.19 438.12,702.38 53.5,214.01 -76.61,430.88 -290.62,484.38 -214.01,53.5 -430.88,-76.61 -484.38,-290.62 -32.32,-128.73 -105.54,-224.06 -188.12,-296.14 -96.4,-84.15 -221.91,-148.68 -317.99,-196.49 -49.69,-24.73 -96.81,-48.6 -141.65,-71.76 l -58.91,-22.09 c -220.75,-82.8 -431.96,-162.01 -630.96,-232.65 l -283.69,217.04 25.7,4.03 c 270.35,18.38 505.36,106.38 704.33,245.56 268.95,188.1 461.48,462.7 578.53,778.29 109.38,294.91 154.25,630.58 134.35,964 -25.22,422.38 -156.64,847.55 -394.89,1188.17 -393.28,562.27 -923.65,877.76 -1390.79,1155.62 -425.32,252.99 -778.21,462.91 -749.19,749.22 2.67,26.42 4.54,39.2 11.5,102.46 11.88,107.86 24.32,220.46 29.77,352.25 28.63,690.44 -146.25,1372.87 -1497.1,1428.87 -165.62,6.86 -332.5,-4.86 -496.25,-34.47 -425.3,-76.9 -825.06,-275.34 -1125.59,-583.62 -306.33,-314.23 -508.33,-737.91 -529.91,-1258.37 -1.93,-46.57 -2.35,-93.95 -1.22,-142.13 -557.39,-122.67 -1111.79,-380.2 -1545.67,-749.57 -167.41,-142.38 -187.7,-393.53 -45.32,-560.94 142.38,-167.41 393.53,-187.7 560.94,-45.32 518.87,441.72 1262.41,675.51 1890.56,634.66 254.73,-16.55 483.76,-79.75 658.86,-194.47 154.19,-101.03 267.83,-246.73 317.9,-441.21 95.11,-369.35 -6.73,-911.77 -413.94,-1660.71 -1337.25,-2459.49 -2743.81,-3013.66 -5146.23,-3943.08 178.65,535.9 442.32,1094.66 746.56,1621.88 340.35,589.8 728.65,1135.08 1103.49,1561.27 9.6,9.78 18.64,20.02 27.14,30.68 167.32,188 331.65,351.85 487.5,484.8 167.41,143.25 187,395.1 43.75,562.51 -143.25,167.41 -395.1,187 -562.51,43.75 -161.99,-138.19 -331.43,-304.87 -503.46,-494.14 -977.22,-312.96 -1688.63,-703.15 -2266.84,-1218.09 -278.86,-248.34 -524.06,-523.27 -750.97,-830.47 67.81,1159.59 467.16,1513.07 1488.19,2134.42 176.63,94.46 352.75,200.1 532.81,319.55 9.9,6.01 19.43,12.39 28.62,19.09 140.43,94.08 283.39,196.59 430.96,308.82 175.17,132.89 209.45,382.65 76.56,557.82 -132.89,175.17 -382.65,209.45 -557.82,76.56 -134.51,-102.29 -264.57,-195.43 -392.2,-280.64 l -152.59,-91.15 c -125.92,-75.17 -245.53,-146.58 -359.09,-215.13 -246.39,-130.07 -494.01,-235.52 -758.37,-325.6 -415.87,-141.7 -878.12,-247.67 -1442.41,-351.7 213.45,335.7 475.41,670.83 757.25,982.51 534.8,591.42 1133.01,1089.91 1603.09,1343.37 194.16,104.41 266.91,346.46 162.5,540.62 -104.41,194.16 -346.46,266.91 -540.62,162.5 -468.6,-252.66 -1037.95,-705.71 -1567.94,-1248.59 -261.02,29.59 -518.05,135.83 -823.27,345.02 -142.19,97.46 -293.59,216.16 -458.44,358.19 332.8,25.36 646.45,100.35 955.16,216.14 625.58,234.63 1204.29,627.97 1883.37,1110.33 50.71,36.03 103.4,85.74 174.88,153.16 369.82,348.9 1416.47,1336.3 2678.42,726.52 198.48,-95.78 437.04,-12.54 532.82,185.94 95.78,198.48 12.54,437.04 -185.94,532.82 -1208.91,584.15 -2221.21,166.85 -2889.47,-295.93 -693.58,268.43 -1279.27,445.77 -1875.67,503.85 -285.88,27.85 -570.3,28.14 -865.21,-2.13 886.97,867.79 1416.51,858.73 2616.7,604.3 356.42,-97.31 736.76,-165.53 1172.6,-211.72 219.19,-22.43 415.08,137.06 437.51,356.25 22.43,219.19 -137.06,415.08 -356.25,437.51 -173.78,18.42 -337.3,40.64 -493.09,67.19 l -156.35,34.52 c -141.74,31.34 -276.42,61.11 -404.89,88.86 -270.86,74.39 -524.78,167.65 -779.88,283.83 -395.63,180.19 -804.53,420.41 -1288.63,733.32 384.68,97.35 804.36,161.29 1222.71,194.77 797.1,63.79 1574.58,16.67 2088.79,-120.82 213.14,-56.95 432.12,69.67 489.07,282.81 56.95,213.14 -69.67,432.12 -282.81,489.07 -515.96,137.96 -1241.32,199.06 -1998.14,167.62 -168.63,200.11 -282.26,453.06 -360.59,813.16 -36.88,169.56 -65.83,360.02 -88.53,575.85 260.09,-210.35 540.3,-371.23 844.93,-498.93 612.37,-256.7 1303.96,-367.37 2130.27,-482.26 43.35,-6.02 75.12,-8.71 117.49,-12.29 483.78,-40.85 2468.95,-208.52 3114.16,-2060.23 72.48,-207.96 299.85,-317.79 507.81,-245.31 207.96,72.48 317.79,299.85 245.31,507.81 -357.76,1026.74 -1019.89,1642.37 -1700.08,2014.2 -1.96,6.15 -4.06,12.28 -6.34,18.39 -275.15,740.96 -839.12,1704.26 -1472.64,2544.55 -586.88,778.41 -1245.9,1465.48 -1811.1,1797.88 -65.18,42.03 -143.27,65.53 -226.65,63.24 -220.05,-6.04 -393.54,-189.33 -387.5,-409.38 23.99,-841.37 54.73,-1493.97 139.84,-2069.64 59.01,-399.1 143.31,-763.29 267.54,-1127.07 -218.79,54.29 -422.47,118.22 -611.85,197.61 -497.1,208.38 -912.85,535.12 -1280.24,1102.03 l -0.12,-0.08 c -72.87,111.95 -200.29,184.7 -343.64,181.33 -220.05,-5.18 -394.24,-187.77 -389.06,-407.82 21.16,-800.39 68.15,-1394.33 169.14,-1858.64 60.86,-279.79 141.14,-516.85 246.05,-725.06 -601.59,-84.42 -1186.79,-230.94 -1669.68,-447.4 -71.43,-28.77 -135.33,-78.44 -181.63,-147.09 -123.4,-182.94 -75.13,-431.29 107.81,-554.69 399.34,-269.3 750.14,-500.91 1076.59,-700.58 -623.22,-212.1 -1212.01,-765.21 -2149.1,-1892.89 -140.66,-169.13 -117.57,-420.28 51.56,-560.94 110.41,-91.82 255.77,-113.84 382.53,-71.03 l 0.29,-0.85 c 692.4,236.3 1249.09,310.68 1800.3,256.99 393.46,-38.32 794.5,-142.11 1245.75,-299.13 -38.18,-35.98 -64.87,-61.04 -68.29,-63.47 -632.47,-449.26 -1167.17,-813.99 -1698.99,-1013.45 -502.14,-188.34 -1026.21,-236.29 -1677.88,-79.06 -133.5,36.83 -282.46,3.01 -387.69,-101.64 -156.19,-155.33 -156.89,-407.87 -1.56,-564.06 561.81,-565.4 1003.19,-964.87 1398.53,-1235.83 236.2,-161.88 457.22,-279.31 676.39,-358.84 -380.5,-474.43 -706.23,-982.43 -909.05,-1470.53 -32.2,-69.74 -44.65,-149.49 -31.39,-231 35.37,-217.46 240.35,-365.06 457.81,-329.69 475.7,77.96 890.07,149.99 1263.73,228.06 -308.12,-581.65 -357.31,-1387.65 -265.89,-2850.33 12.94,-220.05 201.83,-387.94 421.88,-375 147.21,8.66 271.06,96.06 333.06,218.86 394.45,745.54 785.74,1325.97 1300.02,1783.97 226.08,201.34 478.34,381.18 767.86,543.5 -109.65,-168.96 -216.39,-343.04 -318.81,-520.52 -481.04,-833.61 -871.32,-1750.67 -1024.33,-2574.87 -19.71,-77.87 -16.17,-162.41 15.29,-242.93 80.25,-205.38 311.81,-306.82 517.19,-226.57 341.26,134.01 516.59,201.84 686.06,267.4 2597.65,1004.89 4112.15,1590.79 5596.08,4320.03 514.03,945.4 628.08,1686.38 485.82,2238.85 -104.43,405.57 -337.41,706.79 -652.28,913.09 -293.96,192.6 -656.57,297.26 -1046.36,322.59 -37.47,2.44 -75.28,4.1 -113.34,5.04 0.21,10.1 0.52,20.14 0.93,30.12 12.69,306.24 128.9,552.82 304.91,733.37 181.82,186.5 428.62,307.46 694.33,355.5 105.37,19.05 214.43,26.52 324.37,21.97 656.51,-27.21 743.42,-312.59 731.48,-600.73 -3.6,-86.98 -15.39,-193.77 -26.65,-296.01 -1.03,-9.39 -1.73,-15.35 -11.5,-111.84 -80.19,-790.98 471.62,-1119.25 1136.69,-1514.84 398.87,-237.26 851.74,-506.64 1143.93,-924.38 150.49,-215.16 234.16,-494.49 251.13,-778.79 13.33,-223.38 -15.87,-445.95 -87.47,-639 -63.94,-172.38 -159.34,-315.55 -284.79,-403.29 -83.63,-58.49 -186.01,-95.35 -307.65,-102.61 l 0.04,-0.69 c -12.45,-0.75 -24.97,-2.05 -37.54,-4 l -951.26,-148.94 c -106.05,-10.66 -207.58,-63.48 -277.36,-154.86 -133.75,-175.17 -100.17,-425.63 75,-559.38 l 549.92,-420.71 c -328.59,-49.57 -567.5,-6.63 -684.16,188.23 -22.06,109.27 -89.55,208.76 -194.11,268.1 -191.57,108.73 -435.03,41.57 -543.76,-150 -165.65,-292.85 -239.79,-562.78 -245.38,-806 -5.85,-254.78 62.6,-475.47 181.72,-660.99 114.88,-178.91 274.78,-320.16 458.08,-423.83 240.13,-135.83 524.98,-207.52 797.98,-213.79 32.87,-0.75 64.6,-0.72 95.37,0.01 131.28,-138.06 259.65,-257.21 388.75,-356.67 -243.89,-985.99 -530.35,-1384.48 -1041.97,-2095.96 -147.69,-205.38 -312.04,-433.92 -471.66,-666.51 -124.26,-182.08 -77.39,-430.43 104.69,-554.69 79.04,-53.94 170.57,-75.61 259.01,-68 604.57,21.16 1120.84,178.09 1552.5,411.23 33.41,18.05 66.31,36.55 98.71,55.48 z m 2836.31,873.82 c -41.07,58.92 -97.58,106.27 -163.68,136.18 -168.35,151.7 -309.67,317.18 -424.77,483.69 -125.12,181.22 -373.47,226.69 -554.69,101.57 -181.22,-125.12 -226.69,-373.47 -101.57,-554.69 136.13,-196.93 300.79,-392.85 494.86,-575.19 -32.45,-133.03 -100.06,-251.56 -192.22,-344.81 -130.01,-131.55 -310.55,-212.92 -510.75,-212.92 -200.2,0 -380.74,81.37 -510.75,212.92 -102.83,104.03 -175.1,239.55 -202.06,391.55 173.03,168.88 321.52,348.24 446.09,528.45 125.12,181.22 79.65,429.57 -101.57,554.69 -181.22,125.12 -429.57,79.65 -554.69,-101.57 -217.24,-314.26 -527.87,-624.9 -937.34,-846.05 -98.71,-53.31 -203.22,-101.46 -313.6,-143.26 483.94,675.63 776.95,1123 1026.88,2070.92 355.16,-61.19 723.24,16.41 1150.97,246.5 330.08,177.55 652.56,237.82 974.06,218.29 l 1.06,-5.25 c 276.19,-1279.31 580.19,-1754.13 1136.26,-2530.46 -110.38,41.8 -214.89,89.95 -313.6,143.26 -125.54,67.8 -241.78,144.03 -348.89,226.18 z m -3075.73,3804.54 0.16,-0.12 c -26.53,-33.16 -54.02,-67.75 -82.89,-104.06 l -0.9,-1.13 c -34.1,-42.89 -72.44,-92.97 -109.26,-141.04 -161.77,-211.28 -280.19,-365.92 -537.47,-360.02 -145.71,3.34 -295.73,40.47 -419.84,110.67 -75.28,42.57 -138.44,96.67 -179.96,161.33 -37.29,58.07 -58.66,129.34 -56.72,214.11 1.02,44.31 8,92.53 21.69,144.82 323.45,-224.33 792.38,-185.3 1365.19,-24.56 z m -5593.14,21971.73 c 147.56,163.09 134.97,414.94 -28.12,562.5 -163.09,147.56 -414.94,134.97 -562.5,-28.12 -259.58,-286.2 -478.94,-467.4 -692.09,-526.94 -190.93,-53.32 -412.71,-8.03 -703.73,148.51 -1362.77,733.04 -2456.92,127.13 -3677.97,-549.06 -89.79,-49.72 185.2,102.54 -156.07,-85.6 -193.29,-106.14 -263.95,-348.9 -157.81,-542.19 106.14,-193.29 348.9,-263.95 542.19,-157.81 235.64,129.91 -35.16,-18.9 159.19,88.72 1019.07,564.34 1932.24,1070.03 2912.35,542.82 485.52,-261.16 894.2,-325.91 1294.35,-214.15 377.93,105.57 710.44,364.66 1070.21,761.32 z m 5486.2,-8719.62 11.02,-573.02 c 4.89,-254.41 -0.48,-451.72 -27.9,-605.9 -18.83,-105.82 -47.54,-180.26 -92.55,-232.34 -25.9,-29.96 -65.23,-59.38 -142.39,-98.72 -114.67,-58.47 -279.96,-123.08 -530.98,-207.63 l -9.33,-3.26 -0.05,0.13 c -250.84,-91.01 -424.38,-143.05 -554.31,-168.23 -98.72,-19.13 -164.08,-20.15 -221.74,-11.6 -402.52,59.76 -711.31,618.5 -1039.61,1212.59 -237.11,429.05 -482.45,872.9 -807.62,1231.4 130.86,21.87 256.42,27.04 374.73,14.63 255.22,-26.78 481.63,-140.1 656.09,-349.76 140.66,-169.13 391.81,-192.22 560.94,-51.56 169.13,140.66 192.22,391.81 51.56,560.94 -287.34,345.32 -651.53,546.44 -1061.36,616.76 -236.38,489.18 -521.67,870.24 -919.83,1192.35 -242.94,196.54 -525.85,368.19 -864.21,526.92 159.15,68.09 322.66,117.05 486,145.18 l 13.6,2.28 c 20.95,3.46 41.9,6.6 62.82,9.37 375.68,49.72 744.15,-12.79 1043.6,-209.63 183.8,-120.81 430.75,-69.74 551.56,114.06 120.81,183.8 69.74,430.75 -114.06,551.56 -52.39,34.44 -105.91,66.26 -160.41,95.55 35.4,24.91 69.91,50.32 103.55,76.22 147.97,113.94 278.75,236.85 393.85,365.56 324.03,-994.85 845.33,-1671.08 1317.05,-2282.85 482.42,-625.65 905.54,-1174.37 919.98,-1921 z m -8970.79,6897.37 c -78.02,0 -144.8,23.7 -189.63,61.99 -28.02,23.94 -45.37,52.64 -45.37,80.4 0,27.76 17.35,56.46 45.37,80.4 44.83,38.29 111.61,61.99 189.63,61.99 78.02,0 144.8,-23.7 189.63,-61.99 28.02,-23.94 45.37,-52.64 45.37,-80.4 0,-27.76 -17.35,-56.46 -45.37,-80.4 -44.83,-38.29 -111.61,-61.99 -189.63,-61.99 z m 2475.85,-7142.23 c -136.1,18.92 -268.13,37.69 -396.23,56.97 -206.08,467.67 -327.16,909.5 -402.23,1417.25 -50.08,338.73 -80.45,705.08 -101.74,1124.03 313.75,-301.03 644.16,-685.38 959.03,-1103.01 410.14,-544 786.56,-1136.23 1061.77,-1670.85 -464.84,120.39 -854.27,153.32 -1046.87,169.58 -44.25,3.73 -70.09,5.53 -73.73,6.03 z m 15352.25,9498.86 c -147.56,163.09 -399.41,175.68 -562.5,28.12 -163.09,-147.56 -175.68,-399.41 -28.12,-562.5 359.77,-396.66 692.28,-655.75 1070.21,-761.32 400.15,-111.76 808.83,-47.01 1294.35,214.15 980.11,527.21 1893.28,21.52 2912.35,-542.82 194.35,-107.62 -76.45,41.19 159.19,-88.72 193.29,-106.14 436.05,-35.48 542.19,157.81 106.14,193.29 35.48,436.05 -157.81,542.19 -341.27,188.14 -66.28,35.88 -156.07,85.6 -1221.05,676.19 -2315.2,1282.1 -3677.97,549.06 -291.02,-156.54 -512.8,-201.83 -703.73,-148.51 -213.15,59.54 -432.51,240.74 -692.09,526.94 z m -7317.5,-22725.39 c -121.35,-65.25 -166.82,-216.54 -101.57,-337.89 65.25,-121.35 216.54,-166.82 337.89,-101.57 53.7,28.88 104.19,53.89 151.57,75.14 51.88,23.25 101.35,43.33 148.46,60.33 129.44,46.38 196.78,188.92 150.4,318.36 -46.38,129.44 -188.92,196.78 -318.36,150.4 -62.89,-22.69 -124.12,-47.34 -183.62,-74.01 -63.98,-28.7 -125.61,-58.94 -184.77,-90.76 z m 1359.73,300.32 c -137.52,10.24 -257.33,-92.95 -267.57,-230.47 -10.24,-137.52 92.95,-257.33 230.47,-267.57 638.98,-48.85 1281.6,-404.72 1969.74,-785.8 4.57,-2.54 9.2,-4.9 13.85,-7.13 215.61,-119.43 -281.11,153.75 144.61,-80.93 120.81,-66.34 272.53,-22.18 338.87,98.63 66.34,120.81 22.18,272.53 -98.63,338.87 l -196.78,108.39 c -262,145.05 -518.06,285.98 -772.89,409.43 368.15,643.89 490.09,1155.37 419.68,1781.12 -67.56,600.54 -317.99,1272.19 -699.59,2289.99 -88.09,234.98 -160.12,610.39 -184.8,1032.9 -21.3,364.53 -6.57,754.32 64.26,1107.07 74.09,369.03 248.74,685.97 501.28,898.09 227.81,191.35 524.55,298.62 872.74,280.87 64.95,-3.3 127.11,-10.33 185.88,-20.96 282.81,-51.14 543.98,-185.21 727.75,-392.96 160.59,-181.56 263.28,-425.46 269.71,-726.45 -37.97,-0.94 -75.67,-2.6 -113.05,-5.03 -389.79,-25.33 -752.4,-129.99 -1046.36,-322.59 -314.87,-206.3 -547.85,-507.52 -652.28,-913.09 -142.26,-552.47 -28.21,-1293.45 485.82,-2238.85 1483.93,-2729.24 2998.43,-3315.14 5596.08,-4320.03 169.47,-65.56 344.8,-133.39 686.06,-267.4 205.38,-80.25 436.94,21.19 517.19,226.57 31.46,80.52 35,165.06 15.29,242.93 -153.01,824.2 -543.29,1741.26 -1024.33,2574.87 -102.42,177.48 -209.17,351.56 -318.81,520.52 289.52,-162.32 541.78,-342.16 767.86,-543.5 514.28,-458 905.57,-1038.43 1300.02,-1783.97 62,-122.8 185.85,-210.2 333.06,-218.86 220.05,-12.94 408.94,154.95 421.88,375 91.42,1462.67 42.16,2268.69 -265.89,2850.33 373.66,-78.07 788.03,-150.1 1263.73,-228.06 217.46,-35.37 422.44,112.23 457.81,329.69 13.26,81.51 0.81,161.26 -31.39,231 -202.82,488.1 -528.56,996.1 -909.06,1470.53 219.17,79.53 440.2,196.96 676.4,358.84 395.34,270.96 836.72,670.43 1398.53,1235.83 155.33,156.19 154.63,408.73 -1.56,564.06 -105.23,104.65 -254.19,138.47 -387.69,101.64 -651.67,-157.23 -1175.74,-109.28 -1677.88,79.06 -531.82,199.46 -1066.52,564.19 -1698.99,1013.45 -3.42,2.43 -30.11,27.49 -68.29,63.47 451.24,157.02 852.29,260.81 1245.75,299.13 551.21,53.69 1107.9,-20.69 1800.3,-256.99 l 0.29,0.85 c 126.76,-42.81 272.12,-20.79 382.53,71.03 169.13,140.66 192.22,391.81 51.56,560.94 -937.09,1127.68 -1525.94,1680.75 -2149.1,1892.89 326.45,199.67 677.25,431.28 1076.59,700.58 182.94,123.4 231.21,371.75 107.81,554.69 -46.3,68.65 -110.2,118.32 -181.63,147.09 -482.89,216.46 -1068.09,362.97 -1669.69,447.39 104.9,208.21 185.19,445.27 246.06,725.07 100.99,464.31 147.98,1058.25 169.14,1858.64 5.18,220.05 -169.01,402.64 -389.06,407.82 -143.35,3.37 -270.77,-69.38 -343.64,-181.33 l -0.12,0.08 c -367.39,-566.91 -783.14,-893.65 -1280.24,-1102.03 -189.38,-79.39 -393.06,-143.32 -611.85,-197.61 124.23,363.78 208.53,727.97 267.54,1127.07 85.11,575.67 115.85,1228.27 139.84,2069.64 6.04,220.05 -167.45,403.34 -387.5,409.38 -83.38,2.29 -161.47,-21.21 -226.65,-63.24 -565.2,-332.4 -1224.22,-1019.47 -1811.1,-1797.88 -633.52,-840.29 -1197.49,-1803.59 -1472.64,-2544.55 -2.28,-6.11 -4.38,-12.24 -6.34,-18.39 -680.2,-371.84 -1342.32,-987.45 -1700.08,-2014.2 -72.48,-207.96 37.35,-435.33 245.31,-507.81 207.96,-72.48 435.33,37.35 507.81,245.31 645.21,1851.71 2630.38,2019.38 3114.16,2060.23 42.37,3.58 74.14,6.27 117.49,12.29 826.31,114.89 1517.9,225.56 2130.27,482.26 304.63,127.7 584.84,288.58 844.93,498.93 -22.7,-215.83 -51.65,-406.29 -88.53,-575.85 -78.33,-360.1 -191.96,-613.05 -360.59,-813.16 -756.81,31.44 -1482.18,-29.66 -1998.14,-167.62 -213.14,-56.95 -339.76,-275.93 -282.81,-489.07 56.95,-213.14 275.93,-339.76 489.07,-282.81 514.21,137.49 1291.69,184.61 2088.78,120.82 418.36,-33.48 838.05,-97.42 1222.73,-194.77 -484.09,-312.91 -893.01,-553.13 -1288.64,-733.32 -255.11,-116.18 -509.05,-209.45 -779.91,-283.84 -128.46,-27.75 -263.13,-57.52 -404.86,-88.85 l -156.35,-34.52 c -155.79,-26.56 -319.31,-48.77 -493.09,-67.19 -219.19,-22.43 -378.68,-218.32 -356.25,-437.51 22.43,-219.19 218.32,-378.68 437.51,-356.25 435.74,46.18 815.99,114.38 1172.34,211.66 1200.4,254.43 1729.96,263.62 2616.96,-604.24 -294.91,30.27 -579.33,29.98 -865.21,2.13 -596.4,-58.08 -1182.09,-235.42 -1875.67,-503.85 -668.26,462.78 -1680.56,880.08 -2889.47,295.93 -198.48,-95.78 -281.72,-334.34 -185.94,-532.82 95.78,-198.48 334.34,-281.72 532.82,-185.94 1261.95,609.78 2308.6,-377.62 2678.42,-726.52 71.48,-67.42 124.17,-117.13 174.88,-153.16 679.08,-482.36 1257.79,-875.7 1883.37,-1110.33 308.71,-115.79 622.36,-190.78 955.16,-216.14 -164.85,-142.03 -316.25,-260.73 -458.44,-358.19 -305.22,-209.19 -562.25,-315.43 -823.27,-345.02 -529.99,542.88 -1099.34,995.93 -1567.94,1248.59 -194.16,104.41 -436.21,31.66 -540.62,-162.5 -104.41,-194.16 -31.66,-436.21 162.5,-540.62 470.08,-253.46 1068.29,-751.95 1603.09,-1343.37 281.84,-311.68 543.8,-646.81 757.25,-982.51 -564.29,104.03 -1026.54,210 -1442.41,351.7 -264.37,90.08 -511.98,195.54 -758.37,325.6 -113.56,68.56 -233.17,139.96 -359.09,215.13 l -152.59,91.15 c -127.64,85.21 -257.69,178.34 -392.2,280.64 -175.17,132.89 -424.93,98.61 -557.82,-76.56 -132.89,-175.17 -98.61,-424.93 76.56,-557.82 147.57,-112.23 290.53,-214.73 430.96,-308.82 9.19,-6.71 18.72,-13.08 28.62,-19.09 180.02,-119.43 356.11,-225.06 532.71,-319.5 1021.08,-621.39 1420.5,-974.87 1488.29,-2134.47 -226.91,307.2 -472.11,582.13 -750.97,830.47 -578.21,514.94 -1289.62,905.13 -2266.84,1218.09 -172.04,189.28 -341.47,355.95 -503.46,494.14 -167.41,143.25 -419.26,123.66 -562.51,-43.75 -143.25,-167.41 -123.66,-419.26 43.75,-562.51 155.85,-132.95 320.18,-296.8 487.5,-484.8 8.5,-10.66 17.55,-20.9 27.14,-30.68 374.84,-426.19 763.14,-971.47 1103.49,-1561.27 304.25,-527.23 567.91,-1085.98 746.56,-1621.88 -2402.42,929.42 -3808.98,1483.59 -5146.23,3943.08 -407.21,748.94 -509.05,1291.36 -413.94,1660.71 50.07,194.48 163.71,340.18 317.9,441.21 175.1,114.72 404.13,177.92 658.86,194.47 628.15,40.85 1371.69,-192.94 1890.56,-634.66 167.41,-142.38 418.56,-122.09 560.94,45.32 142.38,167.41 122.09,418.56 -45.32,560.94 -433.83,369.32 -988.12,626.82 -1545.45,749.52 12.7,547.1 -171.44,997.25 -470.51,1335.36 -305.94,345.86 -730.4,567.19 -1184.01,649.22 -96.65,17.48 -192.26,28.7 -285.88,33.46 -563.96,28.76 -1049.19,-148.88 -1425.86,-465.25 -391.93,-329.2 -660.14,-806.98 -770.04,-1354.33 -85.82,-427.45 -104.49,-885.94 -79.88,-1307.09 29.29,-501.54 121,-963.72 234.8,-1267.26 359.64,-959.22 595.6,-1591.71 652.71,-2099.37 51.65,-459.07 -51.41,-845.3 -355.73,-1360.16 -6.62,-11.21 -12.61,-22.61 -18.02,-34.16 -201.77,60.09 -405.63,101.37 -613.84,117.28 z m 5255.29,12750.6 c 275.21,534.62 651.63,1126.85 1061.77,1670.85 314.87,417.63 645.28,801.98 959.03,1103.01 -21.29,-418.95 -51.66,-785.3 -101.74,-1124.03 -75.07,-507.75 -196.15,-949.58 -402.23,-1417.25 -128.1,-19.28 -260.13,-38.05 -396.23,-56.97 -3.64,-0.5 -29.48,-2.3 -73.73,-6.03 -192.6,-16.27 -582.02,-49.17 -1046.87,-169.58 z m 3786.08,7379.83 c -44.83,-38.29 -111.61,-61.99 -189.63,-61.99 -78.02,0 -144.8,23.7 -189.63,61.99 -28.02,23.94 -45.37,52.64 -45.37,80.4 0,27.76 17.35,56.46 45.37,80.4 44.83,38.29 111.61,61.99 189.63,61.99 78.02,0 144.8,-23.7 189.63,-61.99 28.02,-23.94 45.37,-52.64 45.37,-80.4 0,-27.76 -17.35,-56.46 -45.37,-80.4 z M 33907.2,36858.88 c -54.5,-29.29 -108.02,-61.11 -160.41,-95.55 -183.8,-120.81 -234.87,-367.76 -114.06,-551.56 120.81,-183.8 367.76,-234.87 551.56,-114.06 299.45,196.84 667.92,259.35 1043.6,209.63 20.71,-2.74 41.42,-5.83 62.15,-9.24 l 1.86,-0.35 c 4.1,-0.75 8.2,-1.42 12.3,-2.04 163.37,-28.13 326.92,-77.1 486.11,-145.2 -338.36,-158.73 -621.27,-330.38 -864.21,-526.92 -398.16,-322.11 -683.45,-703.17 -919.83,-1192.35 -409.83,-70.32 -774.02,-271.44 -1061.36,-616.76 -140.66,-169.13 -117.57,-420.28 51.56,-560.94 169.13,-140.66 420.28,-117.57 560.94,51.56 174.46,209.66 400.87,322.98 656.09,349.76 118.31,12.41 243.87,7.24 374.73,-14.63 -325.17,-358.5 -570.51,-802.35 -807.62,-1231.4 -328.3,-594.09 -637.09,-1152.83 -1039.61,-1212.59 -57.66,-8.55 -123.02,-7.53 -221.74,11.6 -129.93,25.18 -303.47,77.22 -554.31,168.23 l -0.05,-0.13 -9.33,3.26 c -251.02,84.55 -416.31,149.16 -530.98,207.63 -77.16,39.34 -116.49,68.76 -142.39,98.72 -45.01,52.08 -73.72,126.52 -92.55,232.34 -27.42,154.18 -32.79,351.49 -27.9,605.9 l 11.02,573.02 c 14.44,746.63 437.56,1295.35 919.98,1921 471.72,611.77 993.02,1288 1317.05,2282.85 115.1,-128.71 245.88,-251.62 393.85,-365.56 33.64,-25.9 68.16,-51.31 103.55,-76.22 z"
       id="path1"
       sodipodi:nodetypes="csccsccccssscscccscccccscccccsscscscsscscccscccscccscscscccsccscsccscssscsccscccssscsccscssscccsccsscssccccccsccscccscccscccscccccccsccscscscsscccccscscccccccscccsccccsccscscsccssssccsssscscscsccccsccscscccssssscscssccscsccccccsscccscccccsccssccccssssccscsscsccccscsscccssssccsccccccscccsccscccccsccccccscsccscccccsccccccsccccccscsccscssccscccccscsccccscsccccccsccsccccsccccccccscsccccccssssccsscsscsssssccccccccccsscsccscscsccccsccsscccscsccccccscccsscscsscccsccsscsccscccscsscccscccccsccsccccssscccscssscssscsccscscsccsccsscsccscccssccsccccsccccscccccscscccccsssscscscscscccsccccsccscsccscccsccccsccscscscccccscscscsccscscsccccsccccccscccsccccscscsccccsccccccccscccscsccccscccsccsccsscccscscsccsssssssssccscscsccsccscscccscccsccscscsc" /></g><text
     x="-15080.049"
     y="45741.012"
     fill="#000000"
     font-size="5px"
     font-weight="bold"
     font-family="'Helvetica Neue', Helvetica, Arial-Unicode, Arial, Sans-serif"
     id="text1">Created by Olena Panasovska</text><text
     x="-15080.049"
     y="45746.012"
     fill="#000000"
     font-size="5px"
     font-weight="bold"
     font-family="'Helvetica Neue', Helvetica, Arial-Unicode, Arial, Sans-serif"
     id="text2">from the Noun Project</text></svg>
